<svg xmlns="http://www.w3.org/2000/svg" viewBox="0 0 1708.88 279.33"><defs><style>.cls-1,.cls-2,.cls-3{fill:#fff;stroke:#7180ac;stroke-miterlimit:10;}.cls-2{stroke-width:0.67px;}.cls-3{stroke-width:1px;}</style></defs><title>clouds</title><g id="Layer_2" data-name="Layer 2"><g id="clouds"><path class="cls-1" d="M1475.67,95.54s-29-24-42,19c0,0,0,11,5,14,0,0-46,18-48,20s100-18,100-18,13-6,32-7,72-6,81-15l54-6s29.19,2,49.09-7l-70.09-3s-15-26-36-28c0,0-7-30-38-9C1562.67,55.54,1497.67,11.54,1475.67,95.54Z"/><path class="cls-1" d="M1385.67,19.54s-43-36-53-9c0,0-28-6-28,20,0,0-28,3-18,25l-28.54,11.1-7.46,2.9s-10,6,13,0,81-28,83-26,31-17,75-16c0,0,41-13,51-20C1472.67,7.54,1402.67,22.54,1385.67,19.54Z"/><path class="cls-1" d="M1662.67,65.54s-114,12-140,29c0,0-51,0-64,9,0,0-4-21-50,11,0,0-87,5-96,23l-152,57s158-28,213-49c0,0,32-15,43-8s54-27,54-27S1507.67,114.54,1662.67,65.54Z"/><path class="cls-2" d="M453.67,249.54s-174.44-2.33-192.86,6.13c0,0-57.5-4.74-66.79-.15,0,0,1.06-15.49-31.84.85-13.38-2.27-65.93-1.55-62.49,9.57L0,278.71s99.51,2.1,136-5.17c0,0,21-1.92,27.14.3,9.11,3.3,118.81-11,118.81-11S352.5,262.79,453.67,249.54Z"/><path class="cls-3" d="M549.39,71.6c3.1-.57-14.11-45.11,46.74-37.68,0,0,25.19,5.43,31.51,12.5,0,0,38.27-29.66,54.56,8,0,0,19.94,3.35,14.64,18.73L802,54.8s15.39,12.94-99.47,28.92l73-2.2s-66.35,20-120.88,19.68-89.16,20.1-94.93,19.33-65.43,19.63-142.84,4.13l73-9.81s-32.39-4.5,14.09-12.65C503.92,102.2,483.91,83.62,549.39,71.6Z"/><path class="cls-1" d="M948.67,103.54s-95,7-109,0-22-5-22-5-10-27-29-18c0,0,30-43-21-66s-89,1-99,9c0,0-29-9-26,29,0,0-42-21-47,34,0,0-21-5-29,10,0,0-34-5-42,26s-21,29-21,29l-91,23s90-17,91-10c0,0-75,21-50,24s107-18,123-18,87-7,104-15,89,4,138-17S858.67,118.54,948.67,103.54Z"/></g></g></svg>