<svg xmlns="http://www.w3.org/2000/svg" viewBox="0 0 1922.67 463.22"><defs><style>.cls-1{fill:#7180ac;}.cls-2{fill:#aab3cd;}.cls-3{fill:#fff;}</style></defs><title>highhill</title><g id="Layer_2" data-name="Layer 2"><g id="Layer_5" data-name="Layer 5"><path class="cls-1" d="M0,79s260-8,408,40,382.2,13.66,569.1,50.83c0,0,86.9,18.17,180.9,129.17S1,375,1,375Z"/><path class="cls-2" d="M1027,184.5l-80-9s-2-24-438-37l258,105Z"/><path class="cls-2" d="M501,380.5l6.26-18.58c33.11-27.36,66.52-55.82,107.45-67.34A157.44,157.44,0,0,0,635.43,287L716,251.5l51-8s-338-135-620-168L0,69.5l1,255,18,51,207,4Z"/><path class="cls-1" d="M1921,0s-403,49-526,102S957,179,906,211c0,0-265,114-322,194s1336,47,1336,47Z"/><path class="cls-3" d="M1921,0c-42.92,5.66-85.76,11.92-128.54,18.45q-32.1,4.92-64.13,10.16t-64,10.9c-42.61,7.55-85.13,15.63-127.36,24.94l-7.92,1.73-7.9,1.82c-5.26,1.23-10.55,2.37-15.79,3.67l-15.75,3.81-15.69,4c-20.86,5.53-41.63,11.52-61.8,18.92l-3.79,1.37-3.72,1.51-7.45,3-7.54,3.15c-2.55,1-5.07,2-7.63,3-10.21,3.86-20.56,7.28-31,10.43-20.83,6.29-41.9,11.58-63.06,16.4-42.33,9.58-85,17.35-127.66,24.77s-85.44,14.25-128,21.74c-21.29,3.77-42.55,7.64-63.61,12.18-10.52,2.28-21,4.75-31.28,7.62-5.14,1.45-10.22,3-15.17,4.8a78.85,78.85,0,0,0-13.89,6.33l-.3.19-.3.13c-16.42,7.17-32.8,14.68-49.06,22.32s-32.47,15.47-48.56,23.48c-32.17,16-64,32.81-95.08,50.75-15.53,9-30.9,18.24-45.91,28s-29.7,20-43.62,31.07c-6.94,5.55-13.69,11.32-20,17.42a147.23,147.23,0,0,0-17.33,19.5,5.06,5.06,0,0,0-.33.5,2.22,2.22,0,0,0-.24.4c-.05.12-.14.24-.18.35a1.66,1.66,0,0,1-.12.31,1.49,1.49,0,0,0,0,.8,3.25,3.25,0,0,0,.61,1.13,9.76,9.76,0,0,0,1.58,1.57,27.09,27.09,0,0,0,4.83,3,62.33,62.33,0,0,0,5.74,2.47A179,179,0,0,0,625.3,425c17.39,3.59,35.17,6,53,8.15s35.7,3.75,53.61,5.21c35.83,2.88,71.75,5,107.7,6.72,71.9,3.41,143.9,5.32,215.91,6.66s144,2,216.08,2.36,144.08.22,216.13-.07,144.09-.84,216.13-1.66,144.09-1.71,216.12-3.05l-2.6,2.65,1.75-225.36Zm0,0,.91,225.37.75,226.64v2.58l-2.61.07q-108.07,2.85-216.14,4.74t-216.18,2.92q-108.09,1-216.2.89c-72.08-.09-144.16-.53-216.23-1.79S911.16,458.34,839.1,455c-36-1.7-72.05-3.73-108-6.7-18-1.49-36-3.19-54-5.32s-35.92-4.63-53.82-8.35a188.55,188.55,0,0,1-26.76-7.35c-2.22-.85-4.44-1.78-6.66-2.89a36.8,36.8,0,0,1-6.62-4.14,19.78,19.78,0,0,1-3.17-3.22,12.83,12.83,0,0,1-2.36-4.86,11.3,11.3,0,0,1,.22-5.87c.15-.43.3-.86.47-1.28s.37-.77.56-1.16a11.66,11.66,0,0,1,.63-1.05c.21-.32.46-.7.61-.9a155.9,155.9,0,0,1,18.53-20.83c6.64-6.37,13.61-12.31,20.74-18,14.29-11.35,29.22-21.69,44.42-31.57s30.71-19.19,46.38-28.21c31.36-18,63.4-34.71,95.76-50.71q24.29-12,48.83-23.41c16.37-7.62,32.77-15.07,49.39-22.27l-.6.32a86,86,0,0,1,15.61-7.1c5.24-1.87,10.51-3.47,15.79-5,10.57-2.9,21.19-5.37,31.83-7.63,21.28-4.51,42.62-8.35,64-12,42.73-7.26,85.51-13.87,128.18-21s85.26-14.66,127.44-23.95c21.08-4.66,42.07-9.73,62.73-15.8,10.33-3,20.58-6.34,30.65-10,2.53-.9,5-1.91,7.51-2.87l7.46-3,7.62-3,3.81-1.51,3.86-1.36c20.53-7.34,41.46-13.19,62.48-18.59S1514.78,64.27,1536,59.8c42.42-8.89,85.06-16.54,127.78-23.67s85.55-13.5,128.42-19.53S1878,5.05,1921,0Z"/><path class="cls-2" d="M807,293.5l120-87s-217.8,90.68-315,176c-15.45,13.56-32.87,28.23-51.91,36h0s0,.05,0,.06c28.16,5.58,205.53,23,233.91,24l344,9-68-260C1043,177.5,807,293.5,807,293.5Z"/><path class="cls-2" d="M1163,249.5l287-162s-249,64-380,104l48,259c27.88,5.58,172.59-31,201-30l256-21,122-330C1670,55.5,906,391.5,1163,249.5Z"/><path class="cls-2" d="M1578,113.5l-93,51s91.28,234.93,92.73,234.85L1920,272.5V16.5C1893,2.5,1578,113.5,1578,113.5Z"/></g></g></svg>