<svg xmlns="http://www.w3.org/2000/svg" viewBox="0 0 1242.89 294.54"><defs><style>.cls-1{fill:#557343;}.cls-2{fill:#384c2c;}</style></defs><title>hill</title><g id="Layer_2" data-name="Layer 2"><g id="Layer_2-2" data-name="Layer 2"><path class="cls-1" d="M0,15.74H7.66l5.62,5.1h8.17l10.72-2.55h9.7l12.26-5.11L62.3,17h3.57l14.81,3.83L96.51,17l7.66,3.83s16.34-6.13,22-3.83,8.17,0,8.17,0h15.32l13.27-3.83L170,17l18.39-3.83h6.63L210.38,17l8.68-3.83s5.62-3.06,8.17,0,11.24,3.15,11.24,3.15l10.21-4.51s7.66-1.87,10.21,0,27.07-5.94,27.58,4.1l5.62,2.37,2.55,2.55,14.81-5.08h19.4L335,20.84l10.21-5.08,9.7-5.08S365.11,6,369.19,6.54,381.45.42,381.45.42s2-5.11,39.83,20.42h7.15L447.83,29s3.57,1.53,5.11,0,10.72,6.13,10.72,6.13l9.7,6.13s6.64,4.59,8.17,4.59,12.77-2.55,15.32-3.06,12.26-2.55,12.26-2.55,9.19,0,23.49,5.61l12.76,3.07h27.58l21.95,5.61,12.77,4.09h16.85l14.3,3.06S660.77,51,673,56.08l11.75,2,8.17,3.57h13.27l6.64,3.58,15.83,2.55,37.79,3.06h16.34l8.68-2.55s10.72-3.57,19.91-3.06a31.28,31.28,0,0,1,15.83,5.61l3.58,5.62,21.45,8L865,89.78s25,2.55,30.13,5.1,49,.52,63.32,7.66h25l12.77,5.62,24,7.66,17.87,3.58,34.21,2.55,10.72-3.07,14.81,8.69s6.64,5.1,8.17,4.59,21.45,0,21.45,0l11.74,4.05,3.58,4.08,20.93,2,8.69-2.55,19.4,7.15,7.66,3.57,10.72,8.69,12.77,7.14,11.23,9.71,8.68,3.57h-14.8l1,4.09-19.92-2.05-28.08-2.55-33.71,4.6h-46.46l-12.77,4.59h-32.68l3.06,6.13h-29.1l-3.58,4.6H962l13.79,6.63,20.43,6.64,14.29-4.59,1.54,4.59h16.34l15.31,7.15,9.2,11.23,7.66,6.13,4.59-6.13,8.17-5.1,2.55,8.68,5.11,2.55h6.13l3.06-4.08,7.66,4.08v4.09c0,2-1,5.61,1,6.64s7.66,2,9.71,3.06l2,1,14.81,5.62s9.19,9.7,10.21,11.23,30.13,10.21,30.13,10.21l13.27,4.6,6.13,5.11,8.17,6.12h-27.57l-23.49-5.1-14.3-4.09h-18.38l-21.45,1-13.28,8.17-22.46-6.12-10.22-4.09h-17.36l-22.47,10.21H974.81l-12.26-12.25-17.36,2-18.38,1-26.55-1-34.73,10.21L854.3,283.31,840,280.25l-18.38-6.13L803.23,268l-16.34-3.06-30.63-9.19L742,262.88l-20.43-5.1H708.26l-9.2,3.06L688.85,266l-7.15-5.11L660.26,268l-25.54-3.06L601,257.78l-34.72-8.17-33.7-6.13s-36.77-2-39.83-2-23.49,6.13-23.49,6.13l-21.45-8.17-25.53,7.14-38.81,1-25.53-2-13.28,1-25.53,5.11-18.38-3.06H258.89l-33.7,7.15c-14.3,2-29.62-3.07-36.76-3.07s-42.9-4.08-42.9-4.08l-22.47-10.22-43.91,5.11-12.26,1-1-10.21L44.43,230.2,14.81,222,0,226.12Z"/><path class="cls-2" d="M1090.21,131.14H1078l6.13,10.21h-31.66v5.92h52.08l8.17,9.4h26.55l4.09,15.32-20.43-7.15H1108.6l10.21,7.15h-20.94l13.79,11.75h-27.57l-10.22,4.59-8.17-6.13L1048.34,174,1033,159.74l-14.3-7.15-24.51-5.32s13.28,11.44,16.34,12.47,17.36,6.12,17.36,6.12l-20.42,2-19.4-8.17,21.44,16.34,13.28,12.25-28.6-8.17L972.77,173l7.14,8.17,11.24,7.15H917.62l-60.26-22.47-10.21-13.27L825.7,124,806.3,96.42l20.42,14.29,19.41,4.09-14.3-13.28,22.47,7.15,13.27,2h5.11L849.19,96.42l28.94,7.15-6.38-13,57.18,6.78,29.54,5.22h25l36.77,13.28,28.21,4.35,23.87,1.78Z"/><path class="cls-2" d="M850.21,172l-32.68-38.81L806.3,124l-20.43-17.36H755.23l-32.68,14.3-17.36,18.51-48,32.55L628.6,188.33s14.29-6.13,11.23,0-13.28,10.21-18.38,10.21S585.7,218,585.7,218l-12.25,19.4h20.42s-1,7.15,2,8.17,15.32,2,18.39,0,23.49,1.18,23.49,1.18,7.15-2.9,11.23,0,25.53,0,25.53,0L694,241.44,711.83,248h55.66l19.4-5.53-16.34-13.28-35.74,2s6.13-6.13,0-6.13-28.6-3.07-28.6-3.07l-14.3,1L698,212.84,694,203.65l45.95-15.32,1-18.38,18.38-10.21-2-12.47h39.83l30.63,9.4L839,177.31l3.06,11-14.3,12.26L806.3,213.86l-11.24-11.23-18.38,6.13L785.87,220,794,230.2l7.15,8.17L780.77,248l25.53,3.66,11.23-15.32-3.06,15.32,7.15,9.19h10.21L821.62,268h15.32l13.27,5.11,10.22,16.34h17.7l17-10.21h16.34l21.45-4.09L947.23,268l11.24-2v8.17l4.08,8.17,17.36,7.15h24.52l26.55-5.11,27.57,5.11,9.19-8.17,11.24,2,30.64,2,39.83,4.09H1174s-11.14-11.6-14.85-12.75S1127,269,1127,269l-6.83-13.75s-3.38-7.69-11.55-4.63-20.43,1-20.43,1l-14.3-10.21,3.07,12.25-14.3-4.08-2-12.77-7.66-6.13-11.75-4.59-12.76-13.79h-16.34l-7.09-2.81-8.74,2.81-1,8.68-24.51-11.23-14.29-5.11L948.26,198l-24.52-4.59-25.53-5.11-30.64-6.13Z"/><path class="cls-2" d="M763.91,74.46l-13.78,3.83-5.36,6.21h19.14l8.43,6,6.13,3.07H761.62L757,99.74H739.4l-12.25,6.89H702.64l-23.75,12.25h23.75l11.49-7.65-8.43,11.48-6.13,10-20.68,6.77-21.44,7.83v-7.83s-1.54,1.4-4.6,0-14.55,4.72-14.55,4.72l-16.85,2.54-3.83.57s0-8.73-3.07-7.83-28.34,7.83-28.34,7.83l-18.38,6.85h8.43L557.87,161s-9.19,3.07-10,6.13-8.42,9.19-8.42,9.19l-19.15,6.13,36,5.87L587,175.57l14.55,4.59,10,.77-13,7.4s14.55,2.55,10,4.09S581.62,198,581.62,198s3.83,13.54,1.53,15.07-14.55,3.83-16.85,4.59-13.79,0-13.79,0l-17.62,5.37-14.55,2.29H504.26l-19.15,8.43H466.72l-11.84,8.3-9.6-8.3-16.09,3.06-12.25,5.24H333.45s-2.3-4.47,0-6.77-1-4.6-1-4.6l7.14-5.36s14.56-4.59,19.15-6.12,13-12.26,13-12.26l27.58.77h26.81L443,198h16.85l14.55-6.38s-20.68-12.25-23-12.25S430,171.74,430,171.74s-19.15,19.14-21.45,19.91S384.77,198,384.77,198s-.77-14,4.59-14.8,18.38-10.73,18.38-10.73l4.6-14.23,1.53-11-9.19-7.83s-1.53-6-4.59-6.77-20.69,5.11-23,6.77-13,13.91-13,13.91l-26,12.26s.26.76-5.61,1.53-25,.77-25,.77L286,172.5l-18.39.77v10s5.37,1,8.43,5.1,10.72,14,13,14.81,10,4.6,10,4.6,6.89,5.36,1.53,7.66-13.79,5.36-13.79,5.36l-11.49,5.36L259.91,230H243.83l-7.66-2.3-6.89-1.53-17.62-3.06v-6.13s-8.43,0-10,2.3,0,6.12,0,6.12l-8.42,4.6-15.32.76s-9.19-4.59-5.36-8.42A87.6,87.6,0,0,0,181,211.57s-8-4.6-9.36-4.6-11.32,6.89-11.32,6.89h-4.6s-6.12-4.59,0-7.66a18.89,18.89,0,0,0,8.43-8.17l2.3-9.7s-1.53-5.1-3.83-5.87-9.62-4.6-9.62-4.6l-8.76-1.53v-10s4.59-6.25,9.19-8.1,10.72-11,10.72-11l2.3-7.83s-13-2.17-10-3.7,9.19-7.66,9.19-7.66v-10l-17.61,13s-10,9.7-13.79,8.3-15.32-3.2-18.39,0-13.78,10.08-15.31,12.38S82.21,172.5,79.91,173.27a74.66,74.66,0,0,1-9.19,1.53s16.09-26.71,19.92-27.53,6.13-8,10-7.83,11.49-5.24,16.08-6,19.15-3.07,23.75-6.13,9.19-10.72,12.25-12.25,13.79-8.43,13.79-8.43L178,100.5l11.49-10s-16.09,1.54-18.39,3.07-28.34,17.62-28.34,17.62-19.15,6.89-21.44,7.65S106,124.25,106,124.25L81.45,139.44l-10.73,4-6.89,8.42-15.32,6.45-31.4,6.57L6.38,168.67,0,177.86V30l21.45-9.19,20.42-2.55,12.26-5.11s11.1,3.67,14.69,4.6,22,.62,22,.62l24.31-.84L134.3,17a29.42,29.42,0,0,0,15.32,0,148.39,148.39,0,0,1,19.15-3.83,33.1,33.1,0,0,1,12.25,0c3.73.77,8.88-1.29,14,0s38.5,2.68,38.5,2.68l8.07-.92s19.23-1.46,21.35-2.33,13-1.92,13-1.92l10.47,5.23,5.62,2.37,32.17-7.6,15.93,7.56s8.58,1.06,13.17-.47,9.39-10.11,9.39-10.11l15.38-4.83h11.1l9.32,9.58S387.83,14,385.53,14s-16.08-.77-16.08-.77-12.26,7.66-17.62,10S331.15,27,331.15,27l-16.09.77H271.4L253,36.16s-4.45,0-9.25.09c-5,.1-10.26.29-11.43.68-2.3.76-30.64,6.13-30.64,6.13L178,49.18,143,63.74l-11,4.59s25.28-4.59,32.94-6.89S181,53,189.45,51.48s34.46-8.42,36.76-8.42S263,38.46,263,38.46L211.66,65.27l26.81-7.66L218.55,71.4,197.87,95.14s38.3-26,40.6-26.81,16.08-9.19,22.21-11.49,17.62-9.19,17.62-9.19S289,50.71,289.79,53s19.15-.76,19.15-.76l.76,10L294.38,73.69l-6.11,5.07-6.91,5.74,3.07,6s23.74-15.31,26-15.31S322,62.2,322,62.2s1.53-8.42,10-9.19S348,50,351.83,50,371,43.75,371,47.65,357.19,63.74,352.6,66.8s-21.45,10.72-21.45,10.72-11.49,5.54-9.19,7,10.72,3.92,16.85,0S352.6,72.93,352.6,72.93s11.49-8.43,16.85-10,13.78-7.66,13.78-7.66L384,66l13-5.36,1.53-9.19-9.32-7.66,10.86-8.42-10.86-4.6s-1.4-3.83,4-3.83,10-1.53,13.79-2.3,14.3-3.83,14.3-3.83-2.81,17.62.25,17.62,10.73.77,10.73-1.53-3.83-16.09-3.83-16.09l19.14,13,6.9,6.9,10,3.06s11.48,4.6,13,6.89S482,69.1,482,69.1l.77,10.72s-11.49,4-14.55,4.68-11.49,0-11.49,0l15.32,13.7,11.48,8.43s6.13,7.66,14.56,10c1.39.38,2.69.79,3.9,1.22a48.47,48.47,0,0,1,9.88,4.65s-14.55-15.06-15.31-15.83-6.13-10-6.13-10l2.3-12.17,4.59-5.44s7.66,4.76,10.73,5.44,10.72,6,10.72,6-5.36-4.59-2.3-10,6.13-10,6.13-10h8.42L529.53,63,518,59.91l-10.72,5.36-9.19,2.3H487.4L483.57,53l15.32,2.3,17.62-3.06h10l18.89-3.32,14,9.44S545.62,63.74,544.85,66s-2.3,8.43-3.83,10.73-7.66,4.76-7.66,7.74-4.59,11.41-4.59,11.41,13.78-10.56,16.08-11.41,10-8.51,10-8.51l18.64-8.42v13s5.1,7.65,3.57,10S560.94,99,560.94,99s3.57,3.06,12.51,3.06,21.19,4.6,21.19,4.6-13-6.89-9.19-8.43,5.36-3.83,10.72-3.83,10.72-4.59,13,.77-1.53,4.6,2.3,5.36,7.66-1.53,10-2.3,4.59-1.53,7.66-2.29,9.95-.77,13-.77,8.42-.77,10.72,0a100.16,100.16,0,0,1,9.19,4.6l4.6-.77s-6.13-3.06,7.66-4.6A228.72,228.72,0,0,0,698,90.54s4.6-1.53,8.43,0,10,0,10,0l1.53-6-18.39-7.74s-6.89,10.12-11.48,7.74-21.45-4.68-21.45-4.68l-6.9,1.53-8.42,3.15s-15.32,8.34-17.62,6-12.25-6-12.25-6H599.23s-2.29-3.74-4.59,0l-2.3,3.75L587,76l-8.43-2.3s.77-4.59,0-6.89-5.1-8.43-5.1-8.43l-4.85-9.44c4.34,0,19,3.74,22.63,4.68s11.07-1.36,11.07-1.36l15.32,6.38s6.55,5.11,12.85,1.28,9.15-8.43,14-5.37,11.9,1.17,11.9,1.17a20.26,20.26,0,0,1,11-.92c5.7,1.29,17.45,3.33,17.45,3.33l14.8.25L717,65.93l43.78,4.49Z"/></g></g></svg>