<svg xmlns="http://www.w3.org/2000/svg" viewBox="0 0 461 59.67">
    <defs>
        <style>
            .cls-1{fill:#fff;stroke:#000;stroke-linecap:square;stroke-linejoin:bevel;stroke-opacity:0;stroke-width:1.19px;}.cls-1,.cls-2{fill-rule:evenodd;}.cls-2{fill:#0079ab;}
        </style>
    </defs>
    <title>mountain3_1</title>
    <g id="Layer_2" data-name="Layer 2">
        <g id="Layer_1-2" data-name="Layer 1">
            <path id="shape0" class="cls-1"
                  d="M2.12,18.52l4.54,0q1.26-2.32,2.72-1.26a36.24,36.24,0,0,0,3.56-2.62c.75-.69,1.82-.4,3.19.88q2.84-2.77,7.57-.06l2.88-1.23,6.72-.09a12.14,12.14,0,0,1,5-3.32s.19-1.49,3.18-2.23c0,0,5.18-6.66,9.39-5.56l6.42-.25q3.33.21,6.59,3.72L70.79,6l3.34-.75q6.62,4.16,10,3.9l3.88-2c.94-.72,2.38-.45,4.33.78a7.61,7.61,0,0,0,6.89.48c.78-.58,1.86.2,3.25,2.36,0,0,2.81-1,4.92,2.41l13.06.92,8.74.09q2.33-1,5.36,1.92s4.39.5,5-.93l8.65.24c.54-.86,2.22-1.2,5-1,0,0,3.15-2.58,4.78-2.33,1.08.17,2.91.4,5.46.67l3.46-1,2.36-.58L172.7,6,179.77.47l2.93,3.62,1.81,2,2.77,2.52.65,1.22,2.54.65,2.72,1.89.94.76,3.76.92,2.73.56,1.67,1.13,3.2,0,1.23,1.41,8.94-6.07q.85-.84,1.77,1.08s6-.16,8.46,1.33l4.59,1.14,1.28.2q.9-.13,4.17,6.07l2.83,1.24,5.23.53,2.35-.25a7.53,7.53,0,0,1,4.2,2.21c1,1.09,3.41.74,7.29-1.07q4.85-2.61,7.11-2.76c1.5-.09,3.09-1.06,4.77-2.89l3.9-1.83,3.44-.07q3.51-5.22,6.57-3.51l3.86-2.09,3.23-.58q2.42-5.7,4.91-4.38l8.64,1.33,2.9.77,10.12.5L320,6.4q2.88-4.31,7.43-3.66a13.86,13.86,0,0,1,9.84,6.72l2.36.76,6.51-.39,4,1.85,4.56,1q0,1.39,5.53-1.81l5.95,0,2.71-1.69,2.77,1.64c4.52-2.18,7.86-3.17,10-3l3.67-2q2.57-3,8.24-1c3.78,1.38,6,2.15,6.67,2.29l2.08-.33L403,8.21l5.64,4.1,2.82-.45,11.44,8.27,4.54-1.87,3.94-2.88a5,5,0,0,0,2.24.4c1.21.06,3.73.05,7.55,0L446,20.93a6.5,6.5,0,0,0,3.22-.47c1.85-.67,1.93-1.22,5.09-.8,2.11.28,4.13.54,6.08.78h0l-.11,38.63L1.07,56.47.6,18.58"/>
            <path class="cls-2"
                  d="M3.64,18.5a33.65,33.65,0,0,0,3.83,2.14h7.78L17,19.57s1.28-2.12,1.66-2.12,3.32.77,3.32.77l2.17.25s1.4.89,1.79.58,1.66.95,1.66.95l2.29.64.64.89v2.3l1.66.9,1.15-2.05,1.15-1.59,1.15,1.21,1-1.21s.38-3.77.77-3.64,4.34,0,4.34,0,1.4,2.81,2.3,2.42l.89-.38,1.91-2h1l.64-1.92s1.54-.51,2-.63a7.19,7.19,0,0,0,1.66-1.15S49.72,12,50.23,11.19s2.05,0,2.05,0,3.44-3.36,4.34-.34L53.42,12l.51,2.55s2.94,2,3.58,4.34l1,1.79V23.7s-.89,2.43-.51,2.17,2.17-1.27,2.17-1.65S61,19,61,19l.76-1.24H60.06s1.79-3.48,1.66-4.12l-1.27-.51.76-1.92s-.89-4.08-3.19-5c0,0,1.67-1,3.71,3.83,0,0,1.91,1.2,2.29,6s0,5.27,0,5.27l.17,3.7,2-1.66s1.92-1.4,2-1.91,1.53-2.56,2.43-2.43,1.53-1.53,2.17-1.53S74.36,16.1,74.74,16s1.66-2.65,1.66-2.65v2.17l1.15,1.66,2.3-2.29v2.29L79,18.6l1.91.13,1-1.28,1.41-.13,3.57-4.47s-.38,3.63,0,3.16,2.55-3.79,2.55-3.79l.9,2.17,1.91-1.28s-2.17-2.17-1.78-2.17,5.23,2.68,5.23,2.68l1.53,1.79L98,13.75,99.38,16l1.28,3,1.66-1.15,3.57,2.81,3.83,3.58a5.9,5.9,0,0,1,2.17,0c.51.25,1.66-.52,1.66-.52s-5.49-5.48-5.1-4.85,6,.9,6,.9,2,1.91,3.7,1.78,4.85-.25,4.85-.25a14.33,14.33,0,0,0,2.3,1c.89.26,8-.13,8.68-.25a36.47,36.47,0,0,0,4.47-1.54,10.34,10.34,0,0,1,6.25-2c4-.13,3.45.26,4-.13s2.42-1.66,3.19-1.53a37.4,37.4,0,0,1,4.08.77c.64.25.64,2,3.71,1.53s5.61.51,6.25.51,15.52,2.89,12.26,1.53c-.54-.22,4.59-1.4,5.61-1.66s5.75-.13,6.39-.38,3.83-1.28,5.74,0a50.76,50.76,0,0,0,5.36,2.68c.39.26,7.79,2.94,7.79,2.94s4.09.67,4.47,1.16S220.79,27,220.79,27s2.93-.76,3.44-.76a12.46,12.46,0,0,0,2.68-1.53,7.67,7.67,0,0,1,2.3-.51c.51.12,3.95,1.78,3.95,1.78l1,1a2.36,2.36,0,0,0,2.43,1c.63-.13,3.31-.4,3.95.05a12.41,12.41,0,0,1,1.79,2.24l2.17,3.19s.26,1.28,1,1a29.25,29.25,0,0,1,4.85,0l4-1.69,1.4-3.13h2.56L263,28.43a26.21,26.21,0,0,1,3.32-1.79c.38,0,1.53-2,1.53-2a34.15,34.15,0,0,0,3.45-.13c.38-.13,1.66-1.66,2-1.66s2.55-.51,2.55-.51,2.43-4.85,3.45-4.72,3.32,1,3.7,1,3.45-.51,3.45-.51l2.55.64-2.68,1.63-2.93,1.05,1.66,1.15,1.66-.51s2.42-1.15,2.29-1.15.39-.51.9,0-.39.51,1.27.51a8.1,8.1,0,0,0,3.45-1.05l1.28-1-1.66-1.53,2.17-.89s.38-1.41.76-1.41.9.52,1.28.52,1.28-1.41,1.28-1.41l3.7.38.64-2a1.3,1.3,0,0,1,0-2.3c1.66-1.15,2.3,2.17,2.3,2.17l1.4.77a36,36,0,0,0,3.06,2.68c.39.13,2.17,1,2.17,1a4,4,0,0,1,.64,1.15c.13.51.64-1.53,1-1.53s3.71,2,4.6,2.17,4.08,1.73,4.59,1.25,2.43,2.2,2.81,2.45,2.17-.69,2.56-2.45,3.57,1.43,3.95,1.43,11.24-5.62,11.24-5.62l-9.83,6.13,3.19.51c.77.13,2.3,1.66,2.3,1.66l2.17-1.66-1,1.92s3.19.63,3.19,0,.64-5,2.55-5c0,0-1.15,6.12,0,5.74s2.55.64,2.55.26V23.83l-.89-.76,1.79-1,.64-2.56s1.27-1.79,1.66-1.79,1-4.21,2.17-3.06a1.93,1.93,0,0,1,0,2.55l.51,1.54,1.15-2.05.76-2.81,1,4.86,1.66-.51s.9-2.56,1-2,.51,1.53,1,1.79c1,.51,2.42-1,2.42-1L365.68,21l2.43-.66h2.17s.89-3.68,1.14-4.19a33.2,33.2,0,0,1,2.43-2.81,22.17,22.17,0,0,1,3.57-2c.51,0,.77,4.09,1.66,4.34s.64,2.68.64,2.68-1,1.53,0,1.53,2.9-1.65,2.9-1.65a1.13,1.13,0,0,1,1.66-.77c1.4.51,2,.77,2,.77a2.26,2.26,0,0,1,1,2.14c-.25,1.3-1.53,1.43-.25,1.3s1.15-2.42,1.66-2.81a5.8,5.8,0,0,1,2-.51s1.4-.25,1.66.26.89.07.25,1.76.77.92-2,2.58a8,8,0,0,0-3.83,5.36c0,.77,4.6-2.3,5-2.81s1.66-.89,2.68-1.66,0-.51.89-1.91.39-2.68,1.79-2.94,1,.46,1.79,1.38,1.28-.1,1.91-.61,1.41.45,2.17.61-.63.54,2.17.92,4.09,1,4.86.64A32.67,32.67,0,0,1,415,21s.38,1.28,0,1.66.89,1.28,1.4,1.66S419.55,27,419.55,27a35.46,35.46,0,0,0,4,3.32c1.28.77-1.15-4.85-.64-5.23s4-.77,4.47-.13,1.66,2.43,3.45,2.94,7.78-.64,8.29-1a24.16,24.16,0,0,1,4-1.15s-.76,1.53.77,1.15A15,15,0,0,0,447.64,25a28.25,28.25,0,0,1,3.44-1,20.48,20.48,0,0,1,4.09-.13,20.33,20.33,0,0,0,3.7-.38,11.73,11.73,0,0,1,1.52,2.3l-.1,33.32L1.07,56.47.6,17.32Z"/>
            <path class="cls-2"
                  d="M18.45,14.9l3-.5,2.91,1.65h1.27l.64,2.17h1.41V16.31l1.27,1.91h1.54v-1a7.78,7.78,0,0,0,1.53,1c.25,0,.89.63,1.27.63a11.59,11.59,0,0,0,2-.76v-2.3l.63-2.17s1.28-2.17,1.79-1.92a5.06,5.06,0,0,1,1.15,1,2.16,2.16,0,0,1,1.53-.26c.64.26-.89-1.53-.89-1.53l-3.32.51L33.3,14.1l-4.64.8-2.08-.71L22.91,14Z"/>
            <polyline class="cls-2" points="46.27 6.13 46.27 7.11 46.27 8.26 47.42 7.19 48.06 5.58 46.27 5.58"/>
            <path class="cls-2" d="M70.53,10.94l-.77-1.53-1-1.15h1.79l.77,2.68"/>
            <path class="cls-2"
                  d="M77,12.85v-1.4L75.64,9.6s.22-.11,0-.7c0,0-1-1-1-.64V9.6c-1,1-1.54,1.34-1.54,1.34l1,.64h0c.63,1.15,1,.64,1,.64a1,1,0,0,1,1.34.12"/>
            <path class="cls-2" d="M80.49,12.85V10.94a1.64,1.64,0,0,0-1.53,1,9.12,9.12,0,0,1,.76.95"/>
            <path class="cls-2" d="M97.72,10.94l.21.63.18.52Z"/>
            <path class="cls-2" d="M100.53,9.6a18,18,0,0,0,1.92,1.91l.63,2v2.43l-1.27.76V12.09l-1.28-1.15"/>
            <path class="cls-2" d="M108.47,13.26a32.73,32.73,0,0,1-.66,3.42V13.87l-.44-.69-1-1.67Z"/>
            <path class="cls-2" d="M105.38,12.85V14.1l.51-.62"/>
            <polyline class="cls-2" points="116.23 14.64 118.15 16.68 116.23 15.66 115.59 14.64"/>
            <path class="cls-2" d="M119.55,14.64a7.27,7.27,0,0,0,2,1h-2"/>
            <path class="cls-2"
                  d="M170.23,10.94c.39.51,1.53,1.79,1.66,1.91A12.52,12.52,0,0,0,173,14.1a9.55,9.55,0,0,1,1,1.05s-1.78.51-1.91.51h-.77a15.73,15.73,0,0,1-2.81-.51c-1.4-.51-1.91.13-.64.51s2.21.9,2.7,1,.24-.76.88,0,1.79,0,1.79,0A15.39,15.39,0,0,1,176,17c1.53.94,1.53,1.45,1.53,1.45a2.42,2.42,0,0,1-2.17,0c-.64-.13-.89.26-1.28,0s-2.64-.25-1.7,0a13,13,0,0,1,2.85,1.79s-.72.51-1.79-.64A7,7,0,0,0,170.74,18l-1.4-.13-2.81-1.15a4,4,0,0,0-2.17-1,8.52,8.52,0,0,0-1.91-1,7.36,7.36,0,0,0-1.66-1.79s1.73-.68,2.71-.08,1.12.18,2.26.71.87.24,1.79.62a8.57,8.57,0,0,0,3.32,0l-.25-1.25L170,11.51"/>
            <path class="cls-2"
                  d="M159.76,14.1c.52.41,1.79,1.56,1.79,1.56l1.79,1a1.37,1.37,0,0,1-1.79.51,2,2,0,0,0-1.79.13c-.63.38-1.08.55-1.4,0s-.52-1.14,0-1.57A6.59,6.59,0,0,0,159.76,14.1Z"/>
            <path class="cls-2"
                  d="M182.11,4.3c.12.51-.12,1.14,0,1.28l1.78,1.66a2.12,2.12,0,0,0,1.41,0c1.07.55.59.11.59.11L182.7,4.09"/>
            <path class="cls-2"
                  d="M184.91,9.6,184,11.51a10.35,10.35,0,0,0-2,1.34,3.22,3.22,0,0,0-.95,1.63c-.05.14-.14-.13-.29,0-1,1-1.41,1.38-1.41,1.38H184l2-.24h1.72c1.15-.63.51-.82.51-.82L186,14.64l-2-.54,2-1.25,2.36-.11,1-.84c-1.15-.83-.38-1.34-1.15-.83s-.89.12-1.53.44-.75.53-1.28.39c-1.38-.39,0-1,0-1l.77-.64h0l.26-.77h0C186.19,10.3,184.91,9.6,184.91,9.6Z"/>
            <path class="cls-2"
                  d="M189.38,16.68c.13.26-.76,1-.76,1l-1.54.66a15.43,15.43,0,0,0,3.07-.66c.64-.36,4.59,0,4.59,0a13.53,13.53,0,0,0,2.68-1c.13-.25,0,1.66,0,1.66s-.76.77,0,1,.9-1.17.9-1.73a7.41,7.41,0,0,0,.51,1.73c.25.39-.26,1.63,0,1s.89-1.13,1-1.77L200,18l.51,2.41a1.34,1.34,0,0,1,1.91,0,21.39,21.39,0,0,1,2,1.8l1.45,1.41c1.48-.77-.82-3.1-.94-3.21a6.81,6.81,0,0,1-1-1.26l-.63-1.28s-.9.26-1,.64-.52-1.79-.52-1.79c.53-.94-.76,1-.76,1l-.89-1.79a.87.87,0,0,0-.77.79c-.13.77-.64-1-.64-1a1,1,0,0,0-1.15-.5l-.81-1.05-1.61,2.58-1.54-1.85c-.12-.57-1.66-.84-1.66,0v.83h0A10.5,10.5,0,0,1,189.38,16.68Z"/>
            <path class="cls-2" d="M215.93,15.89v1.79a2.21,2.21,0,0,1-.89-1.79"/>
            <path class="cls-2"
                  d="M217.85,15.15c.38.64,1,1.09,1.4,1.63a3.46,3.46,0,0,0,1.28.9v-2l.89,1.13v2.06a7.7,7.7,0,0,0,.13,1.53c.26.91-.76,0-.76,0l-1.66-1.53a5.46,5.46,0,0,1-1.28-2.16"/>
            <path class="cls-2" d="M228.45,19.36v2.81s.76.77.76.13V20.37Z"/>
            <path class="cls-2"
                  d="M232.53,19.36c0,.51,1.4,1.6,1.4,1.6l.52,1.59a17,17,0,0,1-1.92,1l.26,1.15-1.66-1.15.38-1,1.28-.5V20.77"/>
            <path class="cls-2"
                  d="M247,23.58a9.82,9.82,0,0,1,.38,1.91l.13,1.41-2.3-.9a8.62,8.62,0,0,1-1.53.9,26.26,26.26,0,0,0-1.28,3.44l1.66.77h0c1.53-1.15,1.79-.76,2-1.34h1.41a16.66,16.66,0,0,0-1.79,2.83c.89.42,1.4-.3,1.79,0a14.81,14.81,0,0,0,2.29.93s1.79.77,2.17,0,.9-2.17.9-2.17c1-1,1.19-2.44,1.53-2.63.51-.3-.34.19-.34.19s-1.19-.92-1.7-.19a3.29,3.29,0,0,1-1.41,1,4.33,4.33,0,0,1-2.47,1.34,7.4,7.4,0,0,0,0-1.34,4.44,4.44,0,0,1,0-1,17.32,17.32,0,0,0,.94-1.83c.51-1.28,1.15-.64.51-1.28s1.53,1.4,0,0-1.45-2-1.45-2Z"/>
            <path class="cls-2" d="M393.76,14l1.41.64,1.15,1.15,1.4.64-1.66.76-1.66-2Z"/>
            <path class="cls-2"
                  d="M405.38,14h1.53c.77,1.28.26,1.6.26,1.6l-.38,1.59.51,1-1.92-1h-1a4,4,0,0,0,.38-1.59,11.77,11.77,0,0,0-.12-1.6Z"/>
            <path class="cls-2"
                  d="M427.08,17.19v3.07c-.76,1.27,0,1.53,0,1.53a3.23,3.23,0,0,1,1.79,0c1.41.51,1.53.38,1.53,0s-.12-1.66-.12-1.66c.25-.64,1.65-.47,1.65-.47l1.79-1.44a7.36,7.36,0,0,0,2.68-1c-.38-.63-3.19-1.66-3.57-1.08s-1.26,1.59-1.26,1.59l-1.29.52s-1.69-.79-1.37-1-.93,0-.93,0"/>
            <path class="cls-2"
                  d="M440,20.51h1.91l1,1.62.13,1.19-1.53-.25a1.44,1.44,0,0,1-1.53.25v1.79h-1.15c-.77-.26-.64-1.28-.77-.26s.51-1.27,0,0a1.9,1.9,0,0,1-1.66,1.28s0,.06-.64,0c-1.27-.13-1.53-.64-1.53-.64-.64.51,0,1.15,0,1.15-.76.38-1.15,0-1.15,0-1.27,0-1.51-.77-1.51-.77a9.83,9.83,0,0,1,1.9-1.14,10.4,10.4,0,0,1,1.66-1.92l1.27-.68c1.66,0,2.05.84,2.17,0a6.33,6.33,0,0,1,.51-1.62"/>
            <path class="cls-2"
                  d="M419.17,22.13h1.28a3.32,3.32,0,0,1,1.14,1.53s-1.78.81-1.14.81c0,0-1.15-1.11-1.79-.81a13.45,13.45,0,0,0-1.41.81c-.12-1.91.77-2.34.77-2.34a17.78,17.78,0,0,0,2.3-1.62Z"/>
            <path class="cls-2"
                  d="M449.23,20.46h5.3a2.51,2.51,0,0,1-1.15,1.67l-1.5.36s-.1.58,0,.58-1.69,0-2.07,0a10.78,10.78,0,0,1-2.81-.58l-1.41,2c-.89.38-1.14,0-1.14,0s.3-1.77.63-2c1.54-1,1.66-1.34,2.56-1.59S447.92,21,449.23,20.46Z"/>
            <path class="cls-2"
                  d="M180.06,2.92A4.51,4.51,0,0,1,180.51,4c0,.09-.64,1-.64,1.07s-.06.75-.06.75.19.73.23.82-.15.23-.15.23a4.2,4.2,0,0,1-.61-.57c-.17-.23-.43-.32-.39-.66A5.63,5.63,0,0,0,179,4.9a1.72,1.72,0,0,1,0-.81,3,3,0,0,1,.42-.79s.15,0,.09-.34-.28-.45.08-.43a1.45,1.45,0,0,1,.66.24"/>
            <path class="cls-2"
                  d="M177.64,8.7c0,.47.57,1.22.57,1.22l.53.72-.27.77-.05.87,0,.66.63.79a2,2,0,0,0-.53.51,4.66,4.66,0,0,1-.72.68l-.77.64-.68-.2.38-1,.15-.77.34-.64v-.85l-.1-.72a5.66,5.66,0,0,0,.19-.62c0-.21,0-.15,0-.51s.06-.26-.07-.7L177,8.79l.06-.72.26.36.47.57"/>
        </g>
    </g>
</svg>