<svg xmlns="http://www.w3.org/2000/svg" viewBox="0 0 1161 995.62"><defs><style>.cls-1{fill:#202020;}</style></defs><title>tree2</title><g id="Layer_2" data-name="Layer 2"><g id="Layer_3" data-name="Layer 3"><path class="cls-1" d="M0,995.12c.17.77,1.18.79,1.77-1-.33-.63-.65-1.28-1-1.94Z"/><path class="cls-1" d="M8.67,985.35c.49-2.24.92-5.11-1.18-4.85,0,2.69-.81,2.83-.54,5.78-.78,1.7-2.12,2.53-2.49,2,0,.74-1.72,2.45-1.26,3.81,2.25-1.63,3.69-4.19,4.63-7.42C8.51,984.26,8.5,985.06,8.67,985.35Z"/><path class="cls-1" d="M152.74,881.75l-1.07.47A4.54,4.54,0,0,0,152.74,881.75Z"/><path class="cls-1" d="M240.77,814.59c-.65.53-.83.87-.77,1C240.56,815.06,241,814.59,240.77,814.59Z"/><path class="cls-1" d="M257,805.07c-.36.18-.65.36-1,.54A1.64,1.64,0,0,0,257,805.07Z"/><path class="cls-1" d="M152.74,881.75l2.77-1.2C155.38,880,154,881.06,152.74,881.75Z"/><path class="cls-1" d="M21.82,963.74a5.31,5.31,0,0,0-.85,1.47c.31-.43.62-.83,1-1.22A1.45,1.45,0,0,1,21.82,963.74Z"/><path class="cls-1" d="M111.62,908.2l-.77.47a4.67,4.67,0,0,0-.29,1Z"/><path class="cls-1" d="M80.26,928.31c.73-.42.19-1.75.12-2.44a2.77,2.77,0,0,1-1,1.82A1.68,1.68,0,0,0,80.26,928.31Z"/><path class="cls-1" d="M31.88,962.07l-.64.85C31.4,962.69,31.7,962.34,31.88,962.07Z"/><path class="cls-1" d="M134.87,894.89a1.06,1.06,0,0,0,.56.26A.73.73,0,0,0,134.87,894.89Z"/><path class="cls-1" d="M1117.53,608.59c0,.09,0,.16,0,.25C1117.75,608.7,1117.82,608.6,1117.53,608.59Z"/><path class="cls-1" d="M1160.68,617.18l-.6.05a3.63,3.63,0,0,0-.17.78Z"/><path class="cls-1" d="M286.63,787.78l-.15.05C285.8,788.45,286.22,788.15,286.63,787.78Z"/><path class="cls-1" d="M579.25,673.78c-3.78-.41,5.32-2.9-.26-3C579.6,671.17,574.71,674,579.25,673.78Z"/><path class="cls-1" d="M22.66,963.18c.36-.37.73-.74,1.12-1.1A7.29,7.29,0,0,0,22.66,963.18Z"/><path class="cls-1" d="M579,670.75h0Z"/><path class="cls-1" d="M355.66,749.52a2.26,2.26,0,0,0-1-.21C354.75,749.43,355,749.51,355.66,749.52Z"/><path class="cls-1" d="M302.47,775l1.35-.57A8.17,8.17,0,0,0,302.47,775Z"/><path class="cls-1" d="M382.76,735.09a4.92,4.92,0,0,0,2-.74,1.48,1.48,0,0,0-.37,0A2.55,2.55,0,0,1,382.76,735.09Z"/><path class="cls-1" d="M412.29,722.94a6.37,6.37,0,0,0-.65-.05l-.92.43Z"/><path class="cls-1" d="M1019.41,609.53a4.66,4.66,0,0,1,1.61,1.14C1020.44,609.71,1025.23,609,1019.41,609.53Z"/><path class="cls-1" d="M22.39,964.29a1.14,1.14,0,0,1,.27-1.11c-.26.27-.5.54-.73.81C22,964.21,22.14,964.36,22.39,964.29Z"/><path class="cls-1" d="M379.58,724.39l4.81-1.81C383,723,381.27,723.68,379.58,724.39Z"/><path class="cls-1" d="M790.08,626.2l1.15-.3A2.33,2.33,0,0,0,790.08,626.2Z"/><path class="cls-1" d="M398.39,716.57a9.68,9.68,0,0,0,3-.18,2,2,0,0,0,.42-.56Z"/><path class="cls-1" d="M1021,610.68h0Z"/><path class="cls-1" d="M1054.87,606.26c-4.9,0-2.28,1.83-3.31,2.9-5.82.59-2.71-1.33-4.72-2.25-3.65.54-6.41,2.31-9.13,2.31-.21-.3-.74-.39-.13-.79-3.81,1.56-11.51.48-15.92,2.67a1.52,1.52,0,0,1-.63-.42,3,3,0,0,1,.88,2.48c-2.2.19-4,1.49-4.9.36,1.35-.08,1.42-.58,2-1l-2.26.73c-2.25-1.53,3.1-.9,3-2.15-4.51.91-9.56,2.93-13.2,3.27-.58-.74,1.54-1.38,3.09-1.72s2.63-.61.13-1c1.89-.07,3.73-.09,5.55-.06-4.45-2.22,3.34-.17-.8-2.61a29.21,29.21,0,0,0-6.67,1c-.89.26-1.74.52-2.7.84-.46.13-1,.34-1.56.52l-.92.33-.5.19-.26.1-.13,0-.07,0-.38.17-.24.11c-.07.06-.17,0-.27,0l-.11,0c0,.12,0,.23-.1.33a.82.82,0,0,0-.18.3.91.91,0,0,0,.08.54c.13.35.26.7-.53,1.17-9.87,1.73-7.82-4.24-15.07-1.89-1.87,1.17-2.56,3.32-7.74,2.29l1.72-2c-6.75,0-3.79,2.83-10.87,1.72,1.23-.78,5.28-.77,4.25-1-4.61-1.4-3.2,1.17-6.71,1.26l-.78-1.68c-7.17.47-15,2-22.95,2.61.42-.53,1.76-1.11-.12-1.56-10,1.26-21.37.77-31.09.31l-3.6,1.68c-.86,0-1.63-.57-.72-.91-3.79-.34-.14.94-1.91,1.62-2.13.23-2.88-.67-1.55-1.19-6.56,1.64-18.71,3.87-25.8,2.83l1.33-.54c-5.49-.19-5.92,3.44-11.06,2.47l.95-.34c-11.85.27-24.75,2.73-33.94,1.35-1.51,2.24-11.75.18-12.22,3.18-6.87-.8-5-1.49-14.56-1.5-2.55.12-3.58,2.21-6.67,2.87l-.24-1.53-4.07,2.07-2.45-1.58-2.89.71c1.18,0,2.56.42,2.43.88-4.5,1.18-11.27.22-11.48-.56l-10.66,2.59c.16-.65,2-1.08,3.33-1.65-5.58,2.27-1.24-1.48-6.36.6.75.26-.27,1-.35,1.28-2.75-.6-8.76.14-13.14,1.12l.71-1.16c-8.05.76-16.82,2.76-25.81,4,3.29,0,2.81,2,.2,2.51l-1.28-1.46c-1.56,1.24,2.83.2-.48,1.93-3.37.31-2.52-1.5-.67-2.31l-4,1.16c-.31-.45.61-.84.77-1.49-1.53,1.25-7.28-.59-9.44,1.51l-.3-.44c-9,1.38-13,2.52-20.23,3.81.08,1.41-2.82,1.57-4.81,3-5.43.41-11.55.38-18,1.6-4.41,1.47-1.12,1.39-3,2.57-.56-1.2-7,.09-3.79-1.42a166.8,166.8,0,0,0-19.39,4.9c1.15.31,2.39.31,1.85.85-1.73.55-4.12.24-4-.41l.44-.22c-10.57,3.94-26,1.33-34.13,5.8l.46-.23c-2.9,1.09-5.81,2.16-8.71,3.29-4.18.7,2.28-1.49-1-1.59A46.08,46.08,0,0,1,588.37,660a48.5,48.5,0,0,0-10.92,2.83,14.79,14.79,0,0,0-6.52-.11,74.71,74.71,0,0,0-8.12,2c-2.84.81-5.73,1.69-8.47,2.34a29.8,29.8,0,0,1-7.54,1.09l.7.74c-1.92,1.4-2.71.18-4.34.39.39.61,2.52.17,1.31,1-17.84,5.73-37.65,8.79-56.3,13.65-6.8,1.87-2.45,5.59-11.53,6.21l1.9-2.33c-12.93,6.1-27.61,9-40.16,15.14.65-.64.5-1.11,1.79-1.55-3.18-.17-10.23,3.65-9.94,4.57-2.07.64-.77-.65-2.2-.67-3,.34-6.4,4-8.28,3.44-.31-.09.64-.66,1.11-.94-1.59,1.23-8.41,3.06-6.19,3.7a39.75,39.75,0,0,0-7,2.63,28.65,28.65,0,0,1-6.25,2.33c-1.93,2.45-8.56,2.65-8.53,5-.53-2.28-9.13,1.87-11.75,4.13.75-1.06-2.92.47-2.1-.9a28.25,28.25,0,0,0-4.39,2.28c-1.05.75-1.52,1.4-1,1.79-7.43.39-11.84,7.64-16.81,6.17-4.8,3-9.47,5.66-14,8.35s-8.92,5.28-13.29,7.77c-.71-2.18,9.84-5.16,8.4-7.09-4.06,2.57-7.14,4.83-10.22,7.05a58.42,58.42,0,0,1-10.54,6.22c-2.31.87.77-1.51,1.33-2.23-4,2.58-8.06,4.82-12,7-2,1.08-3.9,2.15-5.76,3.28a51.27,51.27,0,0,0-5.3,3.72c-.09-.2.59-.86,1.25-1.45-1.41.91-3.53,1.69-2.85,2.48l1.27-1.07c3-.06-4.15,6-4,6.86.47-2-1.43-1.08-3.2-.37s-3.38,1.3-2.42-1.49c-.84.75-1.76,1.89-1.19,2.34-1.49.69-2.14.63-1.14-.91-4.81,3.64-2.42,3.44-7,6.28-.25-.43.58-1.17.75-2a22.88,22.88,0,0,1-7.71,6.69c.07-.4-.59-.43.56-1.18-6.51,4.48-9.82,9.45-17.37,13.69.85-3.23-2.81,1.1-4.27-.16l-3.49,3.12,2.06-.34c-3.35,2.33-5.39,5.63-8.57,7.2l2-2.42-5.91,4.83,3.89-2c-2.72,3.22,1.77,1.62-2.87,4.42.39-.39-.44.19-1.63,1a12.7,12.7,0,0,1-3.92,2h0a14.71,14.71,0,0,1-5.07,5c-1,0-.81-2-1.45-2-.28,1.24-2.12,2.75-3.9,4.44s-3.63,3.39-4.05,4.84c.39-.84-.21-1.62-.55-1.59l-.45,2c-1.7.9-2,.93-2.31.14-4.48,3.49,2.91.64-2.88,4.2.33-.42,0-.4.73-1.25-5.45,4-9.27,9.05-14.45,12.45-2.59-.3,3.84-3.76,1.23-3.67-6.56,5.89-12.83,13.26-20,18l1.4-.79c.63,2.83-5.89,2.78-8.66,6.31.75-.78.26-2,.2-1.6-5,3.1-9.33,7.51-16.27,13.15l.53-1.18c-3.2,1.43-7.78,4.72-11.1,6.45-.57,1.17-2.43,2.22-.81,2.36-5.92,1.41-10.3,4.7-14.61,7.9s-8.49,6.39-13.72,7.62c1-.64,2.22-2,1.38-1.51l-7.22,5c1.19.63,1.34,0,3.38-.17a13,13,0,0,1-4.3,4c3-2.69-1-1.57-2.78-1.23.43.15.13.79.44,1-5,.63.56,2.37-5.48,4.47l0-.69c-1.83,1.49-3.22,3.32-5.45,4.51-1.6-.58,1.78-1.85,1.33-2.87-3,2-4.55,5.87-8,6.48,1.05-1.13,2.88-2.3,4-3.42-3.79.55-3.92,1.11-6.24,2.32l.24-.11-5.43,2.69,1.52-.48c-1.8,5.34-7.2,5.52-10.84,10.79,3.57-5.06.09-1.57-.4-3.07-1.51.51-3.68,1.47-3.38.74-1.63,2.62-4.45,1.92-6.67,5.72-.43-.3-2.49,1.74-2.69.37-2.76,2.5,1.21.17,1.31.85-3.59,4.66-12,6.34-17,13.3a36.19,36.19,0,0,0-4.76,6.24,43.84,43.84,0,0,1-4.35,6c-2.17.87.16-2.52.16-2.52a19.63,19.63,0,0,0-4,2.91,25.11,25.11,0,0,0-3.12,3.58c.2-.78-.56-.55-1.68-.23-1.87,2,0,2.53-3.06,4.57a8.88,8.88,0,0,1,.51-3.31c-1.95,2.6-3.48,5.53-5.33,8.31-1.23.1.34-2.38.76-3.6-1.16,1.48-2.59,3.49-3.74,5.28s-1.87,3.5-1.69,4.37L12.84,978c-.8,1.1-1.35-.17-.9-1.11a4.8,4.8,0,0,1,2.2-2.79,2.15,2.15,0,0,1,1.62-.26l-1.3,2c1.89,0,3.28-1.84,4.76-4.06.72-1.12,1.45-2.35,2.24-3.48a16.34,16.34,0,0,1,2.45-3c0,1,0,1.9.08,2.85.7-1.55,1.48-3,2.23-4.6,1.11-.32,2.41.05,1,1.87,3.11-1.57,1.66-2.56,4.53-3.68.35-.09.31.09.16.35.65-.9,1.34-1.76,2-2.64-.19.75,1.38.74-.31,1.84a15.59,15.59,0,0,0,3.16-2.42,26.19,26.19,0,0,0,2.16-2.39c1.22-1.51,2.16-2.65,3.51-2.74l-.3.41c5.85-5.69-.38-1.69,3.28-6.92,1.85.11,3.71.27,5.56.43l-.3-1.7c.7-.47,2.08-1.4,2.21-.72,1.86-2.71-.83-.21,0-2.09,4-1.34,8.6-7.17,10.78-5.71.5-1.79-3.67,1.52-.63-1.65,2.51,1.41,3.81-3.26,7.54-4.39-.16,1.76-3.43,3.17.28,2,.53-3.15,6.2-3.66,8.54-5.74-.89-1.6,5.21-4.39,9.28-7.72,0,.68,8.83-4.45,13.32-6.43l0,.34c-.17-2.06,4.29-4.4,7.22-6.6.45,1,.11,1.72-1.33,3.17l2.93-1.78c.39-.92,1.15-1.74,3-3.06l0,1.62c3.88-2.4,7.09-6.09,12.64-8.23-.35-1.27-5.83-.74-.87-4.6.55.48,1.34,1.39.07,2.46a6.91,6.91,0,0,1,2.44-1.75l-1.57,2.27c2.58-.92.73-1.55,2.64-2.54.46.87,1.73-.2,1.86.63-.43.36-1.83.6-2.35,1.35,2.19-1.07,5-2.06,6.24-1.93-.47-.37-.68-1.14.78-2.16,3.91-2.44,2,.21,4.53-.77.59-1.17,3.47-2.12,2.76-3.41,1.15-.7,1.72-.26,2.38-.2a51.76,51.76,0,0,1,4.88-3.75c1.72-1.32,2.83-2.38,1.28-2.3l-.57.25c.08-.09.19-.16.29-.27h0c5.72-5.48,13.94-8.32,19.87-13.37l.28.41c3.42-3.16,8.11-6.35,10.09-9.2,1.09-.83,3.11-1.24,3-.42,2.59-2.44,2.55-3.13,7.07-5.64-2.26,2.87,1.44-.16-2.48,2.75,3.89-2.5,5.19-2.56,8.2-6.7-.51,2,3.68-1,5.13-2.65l-3.06,1.35a60.41,60.41,0,0,1,5.24-4.31l.17,2c4.27-2.24,6.95-5.74,9.48-8.8s5-5.79,8.76-6.76c1.13-2.48-4.38,2.62-3.57.16a23.14,23.14,0,0,1,5.57-2.89,21.45,21.45,0,0,0,3.84-1.48c5.15-2.89,2.77-5.28,8-8.59-1,0-2.57-.83.79-4,3.59-2.4,5.73-1.16,3.85.84-.79.65-1.31.79-1.39.61-1,1-2.28,2.27-.53,1.78l.08-.81c2.07-.78,6.75-4.33,6.22-2.73,2.25-2.37.53-1.6-1.58-.42a38.55,38.55,0,0,0,5.89-3.87,52.58,52.58,0,0,1,6-3.95c-.92.24-2,.15-1.27-.36,7.21-4.14,2.35-3,6.81-6.45,3.15-1,.25,2.4,4.54-1.34,3.22-1.39,1.48.91.61,2.06,3.66-3.78,8.43-4.65,11-6.08l-2,1.89a18.76,18.76,0,0,1,3.44-2.56l-1.95-.18c1.45-.68,2.6-1.37,2.84-.94,1-1.52-2.12-1,.08-3.62,2.12-.61,5.15-4,6.6-3-5.95,3.06,1.46,1-3.2,4.14a13.75,13.75,0,0,1,3.42-2.08c.29,0,0,.39-.34.7,3.07-1.08,3.45-1.85,3.78-2.77s.58-2,3.45-3.68c-.27,1.18,2.19.67,3,0-2.31,1.33-1.86-.62-.09-2.45,4-1.55,3.72-2.78,5.68-3.84l-2.35,1c.3-1.2,2.17-2.2,4.62-3.9.56.46-2.11,1.74-1,1.48,2.1-3,7.3-2.21,10.79-5.36,2.14-.5,1,1.37,2.8.82a9.84,9.84,0,0,1,4.75-2.51,12,12,0,0,0,5-2.4c-1.93-.34-2,.05.79-2.75l-7.47,4.87,4.23-4.18c-2.38,1.24-4.66,3.29-6.17,3.87,1.94-2.14,1.84-1.73.23-2,4.1-.13,6-4.31,10.3-5.22l1.24,2.68a18.42,18.42,0,0,0,4.21-1.83c1.3-.73,2.52-1.57,3.79-2.45a42,42,0,0,1,9.15-5.22l-2.61.72c.48-1.55,4.5-2.43,6.74-4,.2,1,1.87.6,3.17.67-.44-.6,5.5-2.52,5.35-4.63l3.89-.4c6.31-2.24,5.8-5.68,11.83-8-1.34,1.78,1.61,1.22-2,3.68,2-.86,3.8-1.49,3.55-2.13,1.38,0,4.94-3.58,7.13-3.49.66-.76.53-1.82,2.78-2.69.32.08.18.45.18.45-.18-.45,3.23-2.09.86-2.27a17,17,0,0,0,5.83-1.06c2-.65,4.15-1.54,6.22-2.44,4.16-1.79,8.19-3.63,11.36-3.43,4.26-2,9.43-4.31,13.38-5.9-.15.37.16.46-.63.65,5.82-1.2,2.4-3.91,9.05-5.25,3.76.32-3,2-.83,1.86,2,2.76,7.41-3.22,12.31-2.9l-1,.54c3.61-.08,7.52-3.91,12.91-5.53,0,0-.17.36.13.47,3.1-2.82,9.86-5.59,14.86-7.74-1.21,1.74-2.13,1.41-.76,2.32,2.25-.93-1.32-1.76,3.18-3.6,1.72.19,5.24-.28,6.1.89L476,700.14c2.78,1,5.62-1.83,8-2.25l-.06.83c6.59-2.34,6.1-4.26,13.36-6.27l-.92-.34c3.39-3,3.62.06,7.14-2.5l1.74,1.54A143,143,0,0,1,518.49,685c-2.26,2.16-7.52,4.44-10.67,6.24,2.59-.73,8.74-2.64,9.83-4-1,.48-2.17,1.32-3.29,1.32,2.75-2.38,6.71-4.36,11.91-5.72.1,4,13.73-2.77,18.26-.82a66.83,66.83,0,0,1,13.8-3.8c4.83-.88,9.87-1.65,15.2-3.08-4.5-2,3.11-.83,1.75-3.63,2.46-.78,3.43-.95,3.7-.81h8c2,.45-2.23,1.21-1.84,1.82,5.52-1,2.58.72,6.39.69-1-.9,1.56-2,4.78-2.24l-4.72-.4c7.32-3.29,7.19,1,14.57-2.25l-2.24,1.48c3.85-1.45,14.66-3.09,18.06-6.33.78.19,1.88.82.17,1.4a118.8,118.8,0,0,0,14.91-4c4.94-1.5,9.67-2.75,13.52-2.72l-.59.87c1.74-.55,2.84-2,5.21-1.65-.06.32-.58.86.26.75.89-.42,4.5-2.14,6.94-2.14l-1.87,1.19c9.5-.75,14-4.58,21.73-6.43.18,1.09,2.13,1.49,4.51,1.59a65.22,65.22,0,0,0,7.05-.19l-.08.33a101.19,101.19,0,0,0,14.46-3.24c4.44-1.29,8.76-2.73,13.77-3.89,6.62,1.43,21.43-2.09,31.73-2.07-1.6-.2,0-1.73,1.79-2.19,2.44.13,6.38-2.37,6.26-.32l-.85.07c2,1.72,6.85.61,10.67.19l.31-2.7c10.42,2.55,26-4.46,31.85-1.63,2.34-.93,5.33-1.21,7.66-2.12l0,1.42a171.26,171.26,0,0,0,18.3-1.61l-1.58,1.17c4.66-.37,5.5-4.63,9.81-5.1l1.48,2c4.07-.4,8.21-.3,12.31-.42a43.71,43.71,0,0,0,12.13-1.75c-.11.32-.3.95-1.61,1.14,3.84-.27,14.94.28,13.34-2.5.23,1.88,8.42-.43,12.78-1.55l-.6,1.44c3.6-2,3.69-2.54,8.86-3.35,1.25.1,1.15,1-.51.79,4.15.47,3.12-1.52,8.14-1.08l-1.8,1c4.23-.15,3.87-.6,6.14-1.77,2.62-.72,8-.11,8.73,1.12.52-.79,2.79-1.94,5.3-1.71.36.46-.53.8-1,1,7.11.59,10.43-2.14,15.36-1a1.12,1.12,0,0,0,.85.79c-5.61.2-10.14.37-9.72.24.07,1.28,4.61,1.29,1.09,3.23,3.58-1.15,9.71-3.52,14.16-3.1a2.09,2.09,0,0,1,.6.42l-.45.17a7.63,7.63,0,0,0,2.79-.32,24.26,24.26,0,0,0,3.67.25c.56,1,5.22.39,7.48.36-.24-1.4,2.73-1.27-.08-2.34.36.09-.42.19-1.92.29a6.13,6.13,0,0,0-1,.18l.15-.13-5.62.3a8.35,8.35,0,0,1,6.13-.75c1.14-1,2.38-1.92,3.09-2.38,3.16,1.86,9.16,2.75,10,3.94,6.88-1,16.24-.88,20.55-3.57,2-.36,2.27.74,3,1.15-1.13.27-2.48.24-3.08.63,2-.36,4.86-.45,7.39-.68a22.67,22.67,0,0,0,3.35-.49,4.87,4.87,0,0,0,1.16-.42,1.55,1.55,0,0,0,.83-.59l.36.06c.49,0,.88,0,1.16,0s.46,0,.58,0c.31,0,.27.19.11.4a3.25,3.25,0,0,1-.31.35c-.11.1-.23.16-.28.22s-.05.1.06.11a1.43,1.43,0,0,0,.26,0l.42-.16c.36-.16.94-.39,1.75-.71,0,0-.14.1-.12.1l0,0,.08,0,.18-.08.4-.17-.45.76c1.21-.06,2.64-.19,4-.36s2.77-.42,4.13-.71c2.73-.59,5.38-1.39,8.11-2.13,5.46-1.46,11.25-2.69,18.7-1-1-.21-1.55-.3-1.76-.61,16.88,1.23,34.86-1.84,51.53,1.11,4.74.62,5.27-.54,8.19-1.37l1,1.53,5-1.62c7.07-1.1,12.07,4,21,1.91l-1.11-1.06c3.19.3,10.14-.25,9.57.9a2.11,2.11,0,0,1,2.31-.44l.07.79,7.9-1.05c6.06.81-1.07,3.09,7.79,3.61,3.31-.17,9.49-1.88,8.27-2.47-1.32-.1-3.37-.64-3.44-1.44l3-.27c.66-2.3,3.1-4.58-4.27-6.54l-5.23,1.2L1149,610.7l4.37.11c-2.43-1.17-4-.29-5.82.28a3.35,3.35,0,0,0-2.12-1.33l-5.17,2c-.58-.93,2.35-1.72-1-2.35-2.42.94,2.2,2.13-1.76,2.66-2.44-1.15-1.69-2-4.62-1.19-.39-.61.24-1,1.4-1.19-2.61.62-6.86.06-8.24,1.26-2.54-1.4-8.74.06-8.42-2.13a20.94,20.94,0,0,1-7,1.62c4.41-2.53-8.9-.4-7.68-3.19-3.28,2.29-11.65.79-17.38,2a2.27,2.27,0,0,1,1.46-.42c-3.21-.25-4.13-1-6.19-1.46-.44,2-5.44,2.34-8.15,3.53-3.91-1.92,2.41-2.28,1.19-4.11.19,1.59-6.85,1.54-5.52,2.87-3-1.18-2.59-.58-4.14-2.21-.53,2.45-2.81.41-5.31,1.92-4.36-1.19-1.13-2.29-5.92-1.52C1050.6,607.16,1054.87,606.26,1054.87,606.26Zm-113,10.17v0l2.34-.17Zm-9.54.44c1.16,0,2.61-.06,4.14-.13.36.47,0,1-1,1C936,617.39,933.75,617.2,932.31,616.87Zm20.53,8.91c-1.5.25-2,0-2.23-.29.71,0,1.54-.12,2.62-.26,0-.05.13-.12.18-.18A1.82,1.82,0,0,1,952.84,625.78Z"/><path class="cls-1" d="M955.48,623.84a5.49,5.49,0,0,1,.61-.12,7.91,7.91,0,0,0-.91-.28l-.51.45Z"/><path class="cls-1" d="M151.48,882.3l.19-.08a1.38,1.38,0,0,1-.47.06A1.1,1.1,0,0,1,151.48,882.3Z"/><polygon class="cls-1" points="800.59 624.35 800.64 624.7 801.44 624.3 800.59 624.35"/><path class="cls-1" d="M104,905.35a1.24,1.24,0,0,0-.77,0A1.66,1.66,0,0,0,104,905.35Z"/><path class="cls-1" d="M84.53,917.17l-3,1.33C82.88,918,83.81,917.54,84.53,917.17Z"/><path class="cls-1" d="M69.56,926.3a1.39,1.39,0,0,0,.06.69h0Z"/><path class="cls-1" d="M296.74,767.46a4.84,4.84,0,0,0,.55-.39C298.53,766,297.65,766.67,296.74,767.46Z"/><path class="cls-1" d="M229.67,816.37a24.82,24.82,0,0,1,1.68-2.18C230.13,815,229.21,815.71,229.67,816.37Z"/><path class="cls-1" d="M379.05,724.59s0,0,0,0l.53-.23Z"/><path class="cls-1" d="M234.42,811.86a9.34,9.34,0,0,0-3.07,2.33A20.34,20.34,0,0,0,234.42,811.86Z"/><path class="cls-1" d="M10.91,975.44l-.6.64a.26.26,0,0,1,.11.23Z"/><path class="cls-1" d="M10.42,976.31l-.47.85C10.23,976.82,10.46,976.51,10.42,976.31Z"/><path class="cls-1" d="M9,979c.3-.62.63-1.23,1-1.83C9.49,977.7,8.93,978.37,9,979Z"/><path class="cls-1" d="M27.75,958.83l-.15-.56A.73.73,0,0,0,27.75,958.83Z"/><path class="cls-1" d="M33,954c-1.34,1-3.93,2-5.47,3.84l.11.45C27.9,956.92,32.33,955.69,33,954Z"/><path class="cls-1" d="M59.89,940.7c-1.66,1-3.3,2.09-4.94,3.16,1.15-.18,2.65-.4.61,1.3C62.42,942.05,53.6,945.07,59.89,940.7Z"/><path class="cls-1" d="M75.16,930.9c-2.45,2,.47.63.51,1C77,930.34,77.36,930,75.16,930.9Z"/><path class="cls-1" d="M185.81,859.29l.52,1.2C188.17,858.86,186.05,860.09,185.81,859.29Z"/><polygon class="cls-1" points="201.24 838.33 198.93 839.24 198.82 840.86 201.24 838.33"/><polygon class="cls-1" points="218.45 835.63 217.77 836.44 220.53 833.5 218.45 835.63"/><path class="cls-1" d="M407.47,726.19,406.21,725C404.79,725.88,405.14,727.65,407.47,726.19Z"/><path class="cls-1" d="M496.77,693.55a6.33,6.33,0,0,0,5.29-1C500,693,497.76,693,496.77,693.55Z"/><polygon class="cls-1" points="776.86 639.77 775.02 640.52 778.55 639.65 776.86 639.77"/><path d="M726.61,667.82s54-30,57-73,0-161,0-161,5-45-39-91-65-38-65-38l44-1-12-17s-42-24-58-48l56,32s3-40,10-32c0,0,19,75,36,86l17,11v-63l-14-17,14-1s-26-40-17-45l23,26,6-34,14-7s-12,53,0,79c0,0-11,57,0,71l34-61-19-3s-1-34,19-19v-30s-16-26-6-37l6,12,15-12a414.61,414.61,0,0,0,0,55l23-9,9,12s-48,34-46,95l22-28s18,7,1,26-38,27-38,48-6,88,3,110-2,95,15,141l-4,12-22-24-21,12-3-11Z"/><path d="M731.25,360.12a37.67,37.67,0,0,1,6.62,4.43,39.26,39.26,0,0,1,5.75,5.84,27.94,27.94,0,0,1,4.4,7.72,19.79,19.79,0,0,1,1,10.31,20.43,20.43,0,0,1-5,9.89,31.43,31.43,0,0,1-7.73,6.08c-.67.39-1.34.69-2,1.05s-1.36.71-2,1c-1.34.52-2.71,1.12-4,1.55s-2.69.91-4,1.24l-4,1-.8.19-1.34-.05c-3-.13-5.78-.38-8.67-.78a74.67,74.67,0,0,1-8.59-1.65c-1.44-.35-2.88-.75-4.34-1.22s-2.92-1-4.44-1.63a31.82,31.82,0,0,1-4.82-2.45,15.69,15.69,0,0,1-3.05-2.45,9.47,9.47,0,0,1-1.82-2.74,7.59,7.59,0,0,1-.49-4.53l8.32-37.41,3.18,37.32c0,.4,0,.63,0,.92v.8c0,.53,0,1.05-.06,1.57-.05,1-.13,2.06-.26,3.08a49.19,49.19,0,0,1-1.08,6.09,25.91,25.91,0,0,1-5.66,11.51,16.36,16.36,0,0,1-5.49,3.92c-.51.2-1,.44-1.55.59l-1.58.45a23.1,23.1,0,0,1-3.14.46,39.14,39.14,0,0,1-11.9-1.22l-.78-.19-.79-.85c-2.38-2.58-4.5-5.12-6.65-7.83a71.38,71.38,0,0,1-6-8.69,41.82,41.82,0,0,1-2.51-5.06,27.26,27.26,0,0,1-1.72-6,19.77,19.77,0,0,1,.09-7.26,17.59,17.59,0,0,1,3.56-7.51l1,11.42-.92-.63-.8-.57c-.52-.39-1-.78-1.53-1.18-1-.8-2-1.62-3-2.53a40.38,40.38,0,0,1-5.46-6.21,26.55,26.55,0,0,1-2.42-4.1,21.48,21.48,0,0,1-1.76-5.36,17.42,17.42,0,0,1,.12-6.88,17.82,17.82,0,0,1,3-6.53l5.7,15.1c-9.06-1.26-18-2.74-26.84-4.89-4.43-1.07-8.85-2.28-13.28-3.69-2.22-.72-4.44-1.45-6.68-2.29s-4.5-1.71-6.93-2.86a40.58,40.58,0,0,1-4.06-2.21c-.36-.22-.9-.61-1.34-.93s-.59-.47-.87-.71l-.21-.19-.3-.28c-.19-.19-.38-.39-.56-.59l-.27-.31c-.09-.1-.26-.32-.38-.48a11.56,11.56,0,0,1-.72-1.1,9.43,9.43,0,0,1-.74-1.7,9.92,9.92,0,0,1-.29-1l-.1-.52c0-.16,0-.44-.07-.66a9.76,9.76,0,0,1,.22-2.8,9.23,9.23,0,0,1,.89-2.3,11.69,11.69,0,0,1,.64-1,7.34,7.34,0,0,1,.52-.62,10.91,10.91,0,0,1,1.09-1.06l.29-.24.2-.14.38-.25c.25-.16.51-.31.77-.46l.38-.2.26-.12.54-.22.54-.21.42-.12.82-.23c.5-.11.9-.18,1.36-.26l1.17-.16c.74-.07,1.46-.13,2.11-.15l1,0h.85c4.54.05,9.08.14,13.62.34a251.5,251.5,0,0,1,27.27,2.44l.15,1.89a258.48,258.48,0,0,1-26.26,7.66c-4.38,1.08-8.76,2-13.15,3l-.82.17-.68.17a11.94,11.94,0,0,0-1.21.35l-.47.17c-.09.06-.23.11-.27.15l0,0s0,0,0,0l.16,0a4,4,0,0,0,1.37-.79,6.38,6.38,0,0,0,.79-.77,5.62,5.62,0,0,0,.37-.46,6.74,6.74,0,0,0,.55-.84,7.8,7.8,0,0,0,.92-4.3c0-.18-.06-.42-.07-.55s0-.28-.07-.42a6.45,6.45,0,0,0-.21-.84,11.28,11.28,0,0,0-.58-1.31,6.06,6.06,0,0,0-.48-.76l-.37-.47a3.71,3.71,0,0,0-.27-.29l-.14-.14-.05-.06a1.29,1.29,0,0,0-.21-.19s-.05-.08.09,0c.35.09,1.19.38,2,.61,1.74.5,3.77,1,5.8,1.46l6.26,1.37,12.83,2.72c8.59,1.86,17.25,4.06,25.79,6.2l5.7,15.09a3.89,3.89,0,0,0,.09-.6c0-.26-.11-.43-.15-.29a5.41,5.41,0,0,0,.88,2.72,26.85,26.85,0,0,0,2.83,4.14c.58.7,1.18,1.42,1.81,2.12l1.8,1.93,7.21,7.71-6.18,3.7a2.85,2.85,0,0,0-1.07,1,6.29,6.29,0,0,0-.78,2.4,14.72,14.72,0,0,0,0,3.62,28,28,0,0,0,.76,4.11,49.48,49.48,0,0,0,3.15,8.52,57,57,0,0,0,4.65,8.05l-1.57-1a23.73,23.73,0,0,0,9.61,1.74,9.09,9.09,0,0,0,7.36-3.71,14.51,14.51,0,0,0,2.13-8.57,28,28,0,0,0-.55-4.8c-.15-.8-.34-1.59-.55-2.37-.1-.39-.21-.77-.33-1.15l-.18-.54a2.38,2.38,0,0,0-.17-.44l11.51-.08a4.48,4.48,0,0,0-.19-2.52,5.44,5.44,0,0,0-.57-1.09c-.15-.27.06-.21.4-.17.7.13,1.82.28,3,.42s2.37.24,3.62.35l3.83.28c2.59.16,5.22.36,7.86.57s5.35.47,7.87.71l-2.13.13c1.09-.22,2.18-.41,3.28-.61s2.11-.48,3.18-.7,2-.57,3-.84,1.89-.64,2.81-1,1.75-.72,2.44-1.15a17.4,17.4,0,0,0,2.07-1.22,7.68,7.68,0,0,0,3.41-7.28,23.58,23.58,0,0,0-1.2-6.07,74.54,74.54,0,0,0-6.07-13.1Z"/><path d="M850.67,364.87c1.87-.62,3.74-1.28,5.52-1.91s3.52-1.32,5.12-2.07a31.14,31.14,0,0,0,4.36-2.39,10.73,10.73,0,0,0,2.73-2.59l1.38-2.2,5.23,1.1c1.39.3,3,.65,4.51.94l4.56.9c3,.57,6,1.09,8.81,1.44,1.4.17,2.78.31,4,.36s2.38,0,3.14,0a5.59,5.59,0,0,1,.73-.05s.11,0,0,.1a.47.47,0,0,0-.11.13c0,.05-.16.12-.21.2s-.1.18-.2.28a1.45,1.45,0,0,0-.24.35,1.79,1.79,0,0,1-.16.37,1,1,0,0,0-.1.39.87.87,0,0,0,0,.53s.06.08.15.11l15-2.52a2.15,2.15,0,0,0,.05.42l.11.52.23,1.08c.16.74.33,1.48.52,2.22.34,1.51.75,3,1.21,4.49a37.53,37.53,0,0,0,3.68,8.48,17.68,17.68,0,0,0,6.18,6.24,11.71,11.71,0,0,0,8.11,1.31l1-.23,1-.35a6.05,6.05,0,0,0,.93-.4l.46-.2c.14-.08.25-.18.38-.26a3.54,3.54,0,0,0,.7-.52,2.69,2.69,0,0,0,.53-.54l.2-.27a1.75,1.75,0,0,0,.13-.28,1.5,1.5,0,0,0,.16-.51,3.57,3.57,0,0,0-.54-2.22,11.7,11.7,0,0,0-2-2.76,22,22,0,0,0-6.36-4.46,13.28,13.28,0,0,0-3.13-1.08,4.71,4.71,0,0,0-.59-.06,1.18,1.18,0,0,0-.43,0c-.25,0-.21.19,0,.19L924,352.9l1.83-.87,1.93-1c1.27-.66,2.5-1.35,3.65-2.06a31.66,31.66,0,0,0,3.11-2.15,7.37,7.37,0,0,0,1.69-1.72c.05-.05,0-.06,0-.06h0l-.06.05-.09.1a1.5,1.5,0,0,0-.15.25,2.53,2.53,0,0,0-.26.52l-.2.69a3.22,3.22,0,0,0-.12.88,5.59,5.59,0,0,0,.43,2.77c.17.3.17.42.26.59a2.23,2.23,0,0,0,.29.44c.08.09.07.1.08.14a.93.93,0,0,0,.17.22c.09.06,0,0,0,0a.11.11,0,0,1-.08,0s0,0-.08-.05l-.23-.11-.45-.25L935,351a6.13,6.13,0,0,0-.71-.32c-.56-.2-1.06-.43-1.66-.65s-1.23-.42-1.84-.65c-2.52-.82-5.6-1.69-8.49-2.61-1.45-.41-2.89-.82-4.34-1.27s-2.84-.75-4.27-1.17a74.83,74.83,0,0,0-8-1.71l-.46-.08-.39,0-.79-.1a5.78,5.78,0,0,0-.63-.05,3,3,0,0,1-.47-.07c-.21-.08-.26-.12.18-.65a5.76,5.76,0,0,0,.65-1.29,4.69,4.69,0,0,0,.23-1.07,4.82,4.82,0,0,0,0-.66,5.55,5.55,0,0,0-.18-1.2l-4.52,7.48c-1.92.18-3.84.36-5.78.48s-3.87.25-5.82.33c-3.9.15-7.81.23-11.81,0l-.5-1.83c3.33-2.22,6.74-4.15,10.18-6,1.72-.91,3.44-1.82,5.18-2.67s3.48-1.69,5.22-2.52l-4.51,7.48a8.39,8.39,0,0,1-.22-1.8,7.14,7.14,0,0,1,.07-1.25,9.08,9.08,0,0,1,.58-2.21,9.75,9.75,0,0,1,2.12-3.17,13.38,13.38,0,0,1,4.36-2.92,12.57,12.57,0,0,1,1.85-.68c.56-.17,1.24-.41,1.73-.5l1.6-.34.8-.16.74-.1c1-.11,2-.25,3-.31l2.81-.13c.95-.05,1.81,0,2.72,0s1.81,0,2.68.08c1.73.12,3.49.26,5.2.44s3.39.44,5.09.67c3.34.6,6.51,1.12,10.14,2.12l2.73.86c.91.29,1.88.71,2.82,1.07s2,.92,3,1.41c.53.29,1.09.64,1.62,1l.8.51c.28.18.6.44.89.66l.88.7a8.73,8.73,0,0,1,.9.81c.33.32.65.66,1,1l.46.52a5.78,5.78,0,0,1,.47.59c.33.47.65.95.94,1.45a10.24,10.24,0,0,1,.85,1.63,14.56,14.56,0,0,1,1.15,6.27c-.06.69-.15,1.38-.28,2.07-.07.33-.14.7-.23,1l-.29.84c-.21.57-.43,1.12-.68,1.66s-.48.86-.75,1.29l-.4.62-.2.3-.19.24-.78,1a9.61,9.61,0,0,1-.79.85,26.58,26.58,0,0,1-5.73,4.35,51.9,51.9,0,0,1-5.24,2.6c-1.71.74-3.39,1.38-5.08,2-.84.29-1.68.57-2.54.83s-1.65.49-2.68.77l-3.46-16.22a15.65,15.65,0,0,1,5,.56,16.3,16.3,0,0,1,2,.68,16,16,0,0,1,1.77.81,25.24,25.24,0,0,1,5.57,4A31.86,31.86,0,0,1,947.35,369a21.65,21.65,0,0,1,1.71,6.57c0,.3.05.6.06.91l0,1a14.63,14.63,0,0,1-.23,1.94,14,14,0,0,1-.55,2,10.94,10.94,0,0,1-1,1.83l-.57.84a9.4,9.4,0,0,1-.66.74,7.58,7.58,0,0,1-.7.69l-.74.57a9.66,9.66,0,0,1-1.5,1,9.2,9.2,0,0,1-1.51.69,21.12,21.12,0,0,1-5.86,1.35,22.67,22.67,0,0,1-11.54-1.86,35.76,35.76,0,0,1-5-2.77,51,51,0,0,1-4.55-3.42,65.46,65.46,0,0,1-8-8q-1.8-2.16-3.43-4.49c-.52-.78-1-1.57-1.54-2.39-.25-.41-.48-.83-.72-1.26l-.35-.65c-.12-.25-.22-.42-.38-.77l15-2.52a24.17,24.17,0,0,1-.05,2.55,16.12,16.12,0,0,1-.68,2.89c-.19.5-.41,1-.65,1.48a7.94,7.94,0,0,1-.83,1.4c-.32.44-.66.88-1,1.3a11.26,11.26,0,0,1-1.11,1.08,11.38,11.38,0,0,1-1.19,1c-.38.25-.77.5-1.17.73a13.69,13.69,0,0,1-2.28,1.08,19.12,19.12,0,0,1-4,1,27.76,27.76,0,0,1-6.65.12,48.86,48.86,0,0,1-5.72-.91,68.08,68.08,0,0,1-10.25-3.21c-1.62-.64-3.21-1.34-4.79-2.08s-3.06-1.53-4.71-2.43l6.61-1.09a20.89,20.89,0,0,1-7.24,3l-1.73.32c-.57.08-1.14.12-1.7.17a26.39,26.39,0,0,1-3.31.09,34.45,34.45,0,0,1-6.31-.75,32,32,0,0,1-6-1.83Z"/><path d="M684,286.58a50.85,50.85,0,0,1-11.85-.91c-1.71-.3-3.32-.63-4.74-.9-.71-.13-1.36-.24-1.9-.3a3.71,3.71,0,0,0-1.07,0c-.07,0,0,0,.22,0a3.9,3.9,0,0,0,1.2-.41,4.91,4.91,0,0,0,1.74-1.49,3.21,3.21,0,0,0,.68-1.66c0-.84-.45-.7-.77-.35a5.38,5.38,0,0,0-.9,1.8,14.93,14.93,0,0,0-.69,5.16,14.41,14.41,0,0,0,1.24,5.15l-.17-.31a25,25,0,0,0,2.24,3.11,26.78,26.78,0,0,0,2.75,2.79c2,1.77,4.27,3.34,6.37,5l-1,8.36c.11-.05.05.09.06.15l-.05.26-.12.54-.23,1.1c-.14.71-.25,1.37-.32,1.93-.16,1.13.09,1.92.44,2.09a.87.87,0,0,0,.46.08c.15,0,.22,0,.43.19l1.83,1.85c.74.73,1.38,1.41,2.08,2a9,9,0,0,0,2.51,1.6A7.68,7.68,0,0,0,688,324a4.31,4.31,0,0,0,2-.58,3.91,3.91,0,0,0,1.69-2.27l1.75-.75a5.8,5.8,0,0,1,1.56,1.63,7.8,7.8,0,0,1,.92,2.3,9.5,9.5,0,0,1-.46,5.16,14.64,14.64,0,0,1-6.77,7.6,19,19,0,0,1-10,2.22,22.33,22.33,0,0,1-9.57-2.73,22.71,22.71,0,0,1-2-1.24l-1-.68c-.32-.24-.63-.52-.94-.78a20.38,20.38,0,0,1-3.55-3.9,19,19,0,0,1-2.6-5.33,19.21,19.21,0,0,1-.82-6.09,21,21,0,0,1,3.11-10.15,18.52,18.52,0,0,1,2.82-3.55,18.88,18.88,0,0,1,1.64-1.45c.29-.23.58-.45.89-.67l.47-.33c.19-.14.3-.2.6-.44l-1,8.37c-.57-2.64-.94-5.4-1.62-8a27.42,27.42,0,0,0-1.26-3.71,24.28,24.28,0,0,0-1.76-3.4l-.09-.14L662,295a27.66,27.66,0,0,0-3-4.93c-1.18-1.63-2.61-3.24-3.88-5.28a16.5,16.5,0,0,1-1.66-3.6,10.49,10.49,0,0,1,1.91-9.75,11.12,11.12,0,0,1,4-3,11.8,11.8,0,0,1,3.85-1,13.56,13.56,0,0,1,2.95,0,17.31,17.31,0,0,1,4.26,1.1,20.54,20.54,0,0,1,3.22,1.59,25.11,25.11,0,0,1,5,4,28.21,28.21,0,0,1,3.84,4.91,22.35,22.35,0,0,1,2.65,6.07Z"/><path d="M629.33,147.73c-8-.3-15.74-1-23.34-1.36-1.9-.1-3.78-.17-5.62-.19s-3.65,0-5.35.08c-.84,0-1.68.1-2.42.21a9.93,9.93,0,0,0-1.91.41c-.45.14-.76.4-.19.19l.22-.12a2.9,2.9,0,0,0,.36-.25,4.27,4.27,0,0,0,.8-.86,4.5,4.5,0,0,0,.66-1.29,2.71,2.71,0,0,0,.17-.68,3.92,3.92,0,0,0,.09-.53c0-.16,0-.4,0-.48a1.61,1.61,0,0,0,0-.31,1.46,1.46,0,0,1,0-.36c0-.12,0-.08,0-.07h0l.08.09.16.2.25.29c.14.19.42.46.61.68.93,1,2.19,2.1,3.47,3.21s2.71,2.22,4.15,3.32,2.9,2.22,4.41,3.31l4.59,3.32c1.56,1.16,3.12,2.33,4.65,3.54s3,2.45,4.54,3.68,3,2.52,4.44,3.82l19.94,17.81-25-3.87c-2.5-.39-5.24-.77-7.86-1.12s-5.31-.69-7.93-.9a58,58,0,0,0-7.61-.22,17.79,17.79,0,0,0-3,.41c-.35.07-.53.21-.35-.11a1.2,1.2,0,0,0,.14-.34,2.11,2.11,0,0,0,.1-.5.76.76,0,0,0,0-.26.68.68,0,0,0,0-.2.89.89,0,0,0-.09-.25c-.13-.17-.07.14.17.48.12.17.28.36.43.55s.35.4.56.59a27.3,27.3,0,0,0,2.91,2.29,58.36,58.36,0,0,0,7,3.92,122.45,122.45,0,0,0,15.24,5.94l8.31,2.64-8.46,3.43a69,69,0,0,0-10.92,5.51,37.45,37.45,0,0,0-4.68,3.43,16.62,16.62,0,0,0-1.78,1.79,3.35,3.35,0,0,0-.8,1.41c0,.11.07.15.2-.05a1.81,1.81,0,0,0,.19-1,4,4,0,0,0-.13-.84.21.21,0,0,1,0-.13c.07,0,.06,0,.15,0,.28.09.82.33,1.51.54s1.46.43,2.32.61A99.79,99.79,0,0,0,616,210.84l43.18,4.61-43.72,11.42-2.28.6c-.83.22-1.64.49-2.45.76a26.61,26.61,0,0,0-4.36,1.93,12.2,12.2,0,0,0-2.92,2.2,2.22,2.22,0,0,0-.74,1.5s0,.07,0,.11a.83.83,0,0,1,0,.15c0,.09-.05.14,0,.3a1.58,1.58,0,0,1,0,.38,3.47,3.47,0,0,1,.16.55,2,2,0,0,0,.23.65c.09.23.18.47.26.72.33.56.54,1.11.88,1.71a45.55,45.55,0,0,0,6.07,7.85,198,198,0,0,0,17,15.81c1.49,1.31,3.14,2.57,4.73,3.88s3.17,2.61,4.79,4c3.22,2.76,6.43,5.5,9.59,8.33l5.69,5.1-3.41,5.28A89.55,89.55,0,0,0,643,299c-.37.81-.69,1.6-.93,2.24l-.15.43a1.57,1.57,0,0,1-.12.3s-.06.09-.09.06a.54.54,0,0,0-.07-.13l0-.05a1.46,1.46,0,0,0-.07-.19,1.31,1.31,0,0,0-.19-.35,3.13,3.13,0,0,0-.39-.61c-.08-.1-.16-.16-.26-.27a2.13,2.13,0,0,0-.33-.34,5,5,0,0,0-.77-.52,2.77,2.77,0,0,0-.78-.31c-.17,0-.22-.05-.31-.06l-.24,0H638l-.17,0a.47.47,0,0,0-.16,0c-.16.08,0,.06,0,.09l.08,0,.21,0a3.77,3.77,0,0,0,.44,0l.56-.14c.76-.21,1.56-.57,2.37-.85l1.1-.56.57-.29.49-.35a11.7,11.7,0,0,0,3.55-3.56,15.71,15.71,0,0,0,2.17-5.22,23.88,23.88,0,0,0,.52-6.18l1.81-.6a19.09,19.09,0,0,1,1.4,3.31,20.86,20.86,0,0,1,.84,3.55,19.55,19.55,0,0,1-.33,7.66,18.45,18.45,0,0,1-3.66,7.37l-.66.83c-.23.25-.48.49-.73.74l-1.5,1.46c-.53.44-1.09.82-1.64,1.23a17,17,0,0,1-1.73,1.19l-.94.54c-.33.18-.73.35-1.1.52l-.58.25-.71.23a8,8,0,0,1-1.63.36l-1,.09a2.89,2.89,0,0,1-.58,0q-.33,0-.66-.06l-.65-.1a3.71,3.71,0,0,1-.7-.17,11,11,0,0,1-1.54-.66,7,7,0,0,1-1.41-1c-.22-.19-.44-.4-.64-.61s-.32-.41-.48-.62a10.18,10.18,0,0,1-.81-1.32,12.08,12.08,0,0,1-.45-1.13l-.19-.58-.11-.47c-.07-.31-.13-.62-.18-.94-.08-.58-.11-1.05-.15-1.59s0-.89,0-1.34l.08-1.21a37.85,37.85,0,0,1,.66-4.16,64.72,64.72,0,0,1,2-7.16c.39-1.13.79-2.26,1.22-3.37s.86-2.16,1.41-3.38l2.28,10.39c-3.54-2.2-7-4.48-10.51-6.74-1.71-1.15-3.51-2.3-5.31-3.46s-3.56-2.33-5.34-3.63c-3.59-2.49-7.11-5.15-10.52-8.05l-2.53-2.23-1.26-1.13L600,264.9l-2.44-2.43c-.82-.82-1.58-1.75-2.37-2.62-1.57-1.72-3.06-3.73-4.54-5.69l-2.08-3.24c-.67-1.14-1.29-2.38-1.91-3.58s-1.13-2.68-1.64-4c-.22-.76-.42-1.53-.61-2.29a14.29,14.29,0,0,1-.47-2.41c-.11-.85-.2-1.71-.27-2.56s0-1.84.08-2.76a14.75,14.75,0,0,1,.43-2.8l.32-1.4c.14-.46.32-.92.49-1.37a21.41,21.41,0,0,1,6.23-8.78,30.28,30.28,0,0,1,7.56-4.62,42.09,42.09,0,0,1,7.41-2.42c1.22-.27,2.43-.51,3.66-.7.61-.11,1.22-.19,1.85-.25s1.18-.12,2.06-.19l-.54,16a72,72,0,0,1-13.38-4.47,36.28,36.28,0,0,1-3.53-1.9,20.41,20.41,0,0,1-3.81-2.93c-.33-.31-.68-.73-1-1.09a12.59,12.59,0,0,1-1-1.39,10.44,10.44,0,0,1-1.39-3.74,9.32,9.32,0,0,1,.31-4.12,10.22,10.22,0,0,1,1.47-3,15.1,15.1,0,0,1,3.38-3.37,28.1,28.1,0,0,1,3.28-2.07A56.39,56.39,0,0,1,604,195.9c4.24-1.61,8.34-2.92,12.64-4.14l-.14,6.07c-5.11-2.27-10.26-4.42-15.39-6.76-2.57-1.17-5.16-2.34-7.75-3.74a31.9,31.9,0,0,1-3.94-2.37c-.33-.23-.68-.5-1-.75s-.69-.58-1-.91a8.31,8.31,0,0,1-2-3A5.3,5.3,0,0,1,585,179c0-.24-.06-.48-.07-.72s0-.51.06-.77a5.54,5.54,0,0,1,.38-1.49,6.9,6.9,0,0,1,.67-1.23,8.78,8.78,0,0,1,2.93-2.58,23.92,23.92,0,0,1,4.87-2.07,73.44,73.44,0,0,1,8.84-2.13c2.89-.52,5.77-.93,8.64-1.28s5.69-.56,8.71-.65L615,180c-1.68-1-3.32-2-5-3.07s-3.27-2.12-4.87-3.23-3.19-2.22-4.76-3.36-3.2-2.36-4.78-3.64-3.18-2.56-4.75-3.91-3.11-2.81-4.65-4.36a44.88,44.88,0,0,1-4.56-5.24c-.39-.55-.75-1-1.14-1.65l-.57-.92c-.19-.33-.38-.71-.57-1.06-.09-.18-.18-.35-.27-.55l-.28-.65a11.06,11.06,0,0,1-.51-1.43,10,10,0,0,1-.4-1.76c-.05-.35-.09-.69-.12-1a9.64,9.64,0,0,1,0-1.21,9.45,9.45,0,0,1,.13-1.26,13.36,13.36,0,0,1,.33-1.39,10.34,10.34,0,0,1,1.27-2.61,10.52,10.52,0,0,1,1.76-1.94c.3-.25.62-.5.93-.72l.84-.5a10.55,10.55,0,0,1,1.58-.72,9.54,9.54,0,0,1,1.39-.44,11,11,0,0,1,1.23-.27c.41-.08.77-.11,1.13-.15a24.6,24.6,0,0,1,3.9-.06c1.2.05,2.32.18,3.42.33,2.18.33,4.24.77,6.25,1.26s4,1.09,5.9,1.7c3.85,1.27,7.6,2.68,11.26,4.3a102.63,102.63,0,0,1,10.73,5.41Z"/><path d="M692.13,118.64a61.31,61.31,0,0,1-13.89-.93C674,117,670,116,666.62,115.34c-.83-.16-1.6-.3-2.2-.43s-1.08-.24-.93-.42.36-.24.81-.62a5,5,0,0,0,1.53-1.91,2.91,2.91,0,0,0,.25-1.09,1.26,1.26,0,0,0-.1-.63c-.16-.31-.36-.22-.53-.07a4,4,0,0,0-.56,2.14,14.4,14.4,0,0,0,.14,3,18.7,18.7,0,0,0,2,5.94l1.4,2.57-2.08,1.36a17.9,17.9,0,0,0-3.62,3.27,17.52,17.52,0,0,0-2.67,4.12,14.66,14.66,0,0,0-1.33,4.46,7.53,7.53,0,0,0,.3,3.65,2,2,0,0,0,.62.91,1.15,1.15,0,0,0,.62.26,3.86,3.86,0,0,1,1.33.46,20.41,20.41,0,0,0,2.72,1c1.1.34,2.39.61,3.74.9,2.68.58,5.65,1.23,8.7,2s6.23,1.69,9.48,2.66,6.59,2,10,3.33a72.82,72.82,0,0,1,10.34,4.71l0,1.9A48.76,48.76,0,0,1,696,163.33a62.05,62.05,0,0,1-11,2.29c-7.44.79-15.16.72-23.09-2.44a39,39,0,0,1-6-3,30.89,30.89,0,0,1-6-4.8,18.08,18.08,0,0,1-4.66-8,15,15,0,0,1,.51-9.16,19,19,0,0,1,3.95-6.15,49.86,49.86,0,0,1,4.54-4.22l4.38-3.64c1.43-1.22,2.75-2.37,4.22-3.7l-.68,3.92c-1.35-1.8-2.9-3.5-4.57-5.33-.82-.94-1.69-1.88-2.53-3a15.44,15.44,0,0,1-2.3-4.15,10.3,10.3,0,0,1-.61-3.32,10.12,10.12,0,0,1,.22-2.23,9.94,9.94,0,0,1,1-2.56,10.8,10.8,0,0,1,4-4,13.34,13.34,0,0,1,3.94-1.52,16.91,16.91,0,0,1,5.59-.26,21.69,21.69,0,0,1,4.2.91,38.59,38.59,0,0,1,12.75,7,42.53,42.53,0,0,1,5.11,4.94,30.1,30.1,0,0,1,4.23,6.15Z"/><path d="M725.79,199.3a69.16,69.16,0,0,1-10.43-4c-2.87-1.35-5.33-2.58-7.37-3.55a10.33,10.33,0,0,1-2.61-1.91,16.87,16.87,0,0,0-2.84-2.46,6.46,6.46,0,0,0-4.11-1.06,7.25,7.25,0,0,0-4.06,1.78l1.11-2.26a21.84,21.84,0,0,0,.66,4.5c.21.75.43,1.5.7,2.25s.55,1.5.86,2.25l1.44,3.51-7.67,1.45c-2.16.41-4.42.92-6.56,1.18-1.07.13-2.14.22-3.18.25l-3.1,0c-2,0-4.08.13-6,.19a50.13,50.13,0,0,1-5.21-.11c-.69-.07-1.33-.09-1.32-.25a.86.86,0,0,1,.29-.21l.13-.09a2.1,2.1,0,0,0,.26-.13l.65-.4.4-.31c.12-.1.4-.3.58-.47a5,5,0,0,0,.55-.58,6.52,6.52,0,0,0,.7-.89,8.46,8.46,0,0,0,1.07-2.28,7.53,7.53,0,0,0,.31-2.45,4.91,4.91,0,0,0-.09-.94,6.86,6.86,0,0,0-.19-.82,4.79,4.79,0,0,0-.43-1,3.24,3.24,0,0,0-.35-.53,1.15,1.15,0,0,0-.25-.22l-.12-.08h-.05a.38.38,0,0,0-.1,0,1.73,1.73,0,0,0,0,.27,8.74,8.74,0,0,0,1,2.08c.94,1.62,2.13,3.43,3.3,5.4a50.35,50.35,0,0,1,3.4,6.58l-.93,1.66a29.63,29.63,0,0,1-7.63.09,28.17,28.17,0,0,1-7.3-1.77,18.55,18.55,0,0,1-3.9-2.09c-.37-.29-.73-.57-1.11-.9l-.61-.6-.3-.31-.34-.41c-.23-.3-.43-.54-.67-.9s-.49-.82-.71-1.25a12.53,12.53,0,0,1-.68-1.8,9.53,9.53,0,0,1-.26-1.21,11.91,11.91,0,0,1-.12-1.34,11.07,11.07,0,0,1,.44-3.23,10.79,10.79,0,0,1,1.44-3,12.11,12.11,0,0,1,.94-1.2c.28-.3.56-.57.86-.84a9.72,9.72,0,0,1,.89-.72q.36-.27.75-.51c.24-.15.55-.34.74-.44l.62-.32.62-.29.52-.21a17.87,17.87,0,0,1,1.84-.61,22.73,22.73,0,0,1,2.76-.57c.83-.13,1.57-.18,2.28-.23a27.86,27.86,0,0,1,7.56.66c2.31.52,4.52,1.2,6.68,1.91,1.08.36,2.15.71,3.21,1.1a32,32,0,0,1,3.11,1.41,65.21,65.21,0,0,1,6,3.77l-6.23,5c.31-.75.6-1.5.86-2.25s.49-1.5.7-2.25a21.84,21.84,0,0,0,.66-4.5l.07-1.58,1-.69c1.63-1.08,3.12-2.32,4.86-3.55a31.27,31.27,0,0,1,5.92-3.64,17.84,17.84,0,0,1,7.49-1.6,14.81,14.81,0,0,1,7,1.92,23.13,23.13,0,0,1,11,15.1,21.79,21.79,0,0,1,.41,3.17,15.7,15.7,0,0,1-.17,3.38Z"/><path d="M784.1,29.62c-6.64-1.44-12.9-3.29-19.07-5.05s-12.18-3.54-18-5c-2.92-.72-5.81-1.35-8.58-1.79a56.93,56.93,0,0,0-7.73-.75,21.24,21.24,0,0,0-5.45.45,5.28,5.28,0,0,0-1.92.86,6.87,6.87,0,0,0-1.92,2.13l-1.29,2.35c0-.1-.13,0-.21.09l-.32.24a8.11,8.11,0,0,0-.62.55,10.26,10.26,0,0,0-1,1.07l-.57.74a.76.76,0,0,0-.24.54,1.85,1.85,0,0,0,.5,1,7.32,7.32,0,0,0,.64.56c.27.17.5.37.8.54a15.47,15.47,0,0,0,4.2,1.58,38.27,38.27,0,0,0,9.86.75,70.94,70.94,0,0,0,10.12-1.22l20.12-3.72L745,36.09a97.28,97.28,0,0,0-9.21,6.17c-3,2.22-5.81,4.54-8.47,6.89A61.64,61.64,0,0,0,720.49,56a10.32,10.32,0,0,0-.94,1.38c-.21.37-.24.65-.09.46a2,2,0,0,0,.26-.72,4.17,4.17,0,0,0,0-1.62,5.36,5.36,0,0,0-.56-1.59,5.21,5.21,0,0,0-.54-.79l2,10.71.2-.42.08-.19c.05-.11.09-.22.13-.32a3.74,3.74,0,0,0,.17-.54,6,6,0,0,0,.18-1.19,6.42,6.42,0,0,0-.12-1.47,5.2,5.2,0,0,0-.22-.77,5.28,5.28,0,0,0-.29-.75,4.76,4.76,0,0,0-.4-.69c-.14-.2-.23-.36-.36-.54a6.29,6.29,0,0,0-.43-.47l-.23-.2-.12-.14a2.94,2.94,0,0,0-.6-.45c-.15-.07-.12-.09-.17-.12l-.1-.09c-.06-.05-.19-.08-.22-.11l.1,0h.36c.21,0,.38,0,.62,0l.86-.06c.52,0,1.28-.14,1.94-.22s1.43-.2,2.16-.32l1.11-.17c.37-.07.77-.17,1.16-.24.77-.18,1.55-.31,2.33-.46l21.62-4.19-11.3,19.7-.7,1.22L737.64,72c-.52.93-1,1.88-1.53,2.84-1,1.9-2,3.82-2.88,5.73a71.1,71.1,0,0,0-4.38,11.31,30.75,30.75,0,0,0-1,5.2,15.68,15.68,0,0,0,.17,4.39,9.93,9.93,0,0,0,1.6,3.8,17.17,17.17,0,0,0,3.87,3.51L736,117c.2-.32.13-.26.17-.35a.18.18,0,0,0,0-.11.2.2,0,0,0-.07-.12.52.52,0,0,0-.19-.14.28.28,0,0,0-.39.25c-.07.11,0,.28,0,.47a1.65,1.65,0,0,0,.21.64c.06.11.1.24.16.36l.25.36c.19.24.32.51.55.76a17.26,17.26,0,0,0,1.47,1.51,15.92,15.92,0,0,0,1.74,1.48c.63.45,1.24,1,1.92,1.42s1.34.91,2,1.41l-.53,1.82a31.77,31.77,0,0,1-5.2-.41,21.3,21.3,0,0,1-5.37-1.51,11.18,11.18,0,0,1-1.37-.71l-.7-.39-.68-.52a8.22,8.22,0,0,1-1.36-1.19,8.88,8.88,0,0,1-1.25-1.59,9.39,9.39,0,0,1-1.29-7,10.41,10.41,0,0,1,.34-1.27c.08-.22.15-.41.26-.65a5,5,0,0,1,.47-.88l2.53,8.25a26.31,26.31,0,0,1-8.64-3.57c-.67-.5-1.35-1-2-1.56a22.72,22.72,0,0,1-1.87-1.81,19.3,19.3,0,0,1-1.66-2c-.25-.36-.53-.72-.76-1.09l-.66-1.13A28,28,0,0,1,711,98.13a39.31,39.31,0,0,1-.16-9.17,60.59,60.59,0,0,1,3.92-16.26A76.35,76.35,0,0,1,718,65.38c.62-1.17,1.24-2.35,1.91-3.5l1-1.74.55-.88.64-1L732.42,73.8c-2,.26-3.9.56-6,.68-1,.07-2,.17-3.19.17s-2.16,0-3.43-.07L718,74.45c-.65-.08-1.37-.19-2.05-.3-.35-.07-.66-.1-1-.2l-1.22-.33-1.21-.36c-.45-.16-1-.4-1.46-.61l-.72-.35a6.94,6.94,0,0,1-.77-.42,20.19,20.19,0,0,1-1.71-1.2l-.4-.32c-.15-.13-.31-.3-.46-.45-.31-.31-.6-.63-.88-1a12.57,12.57,0,0,1-.8-1,14.51,14.51,0,0,1-.72-1.28,10.32,10.32,0,0,1-1-2.76,11.42,11.42,0,0,1-.28-2.8,12,12,0,0,1,.32-2.52c.1-.4.21-.78.34-1.19l.24-.63.15-.35c.08-.2.17-.39.26-.57l2,10.7a14.65,14.65,0,0,1-2.37-2.91,12.74,12.74,0,0,1-1.8-8.59,14.19,14.19,0,0,1,1-3.44,17,17,0,0,1,2.76-4.39,23.35,23.35,0,0,1,2.8-2.82,38.57,38.57,0,0,1,5.53-3.91A59.21,59.21,0,0,1,720,37.58c3.69-1.69,7.39-3.06,11.09-4.33,1.84-.65,3.69-1.26,5.54-1.86l5.53-1.84,1.76,6.82c-3.57,0-7.12,0-10.7-.08s-7.18-.18-10.93-.54a33.43,33.43,0,0,1-5.85-1.1c-.51-.14-1-.36-1.56-.55s-1.07-.52-1.6-.78a10.47,10.47,0,0,1-3.16-2.67,9.83,9.83,0,0,1-1.94-4.32,13.28,13.28,0,0,1,0-4.41,17.26,17.26,0,0,1,1.08-3.71c.23-.56.48-1.12.76-1.66.14-.27.28-.54.44-.81a8.33,8.33,0,0,1,.61-.93l-1.29,2.35A20.5,20.5,0,0,1,712,10.49a18.23,18.23,0,0,1,5-5.86,21.52,21.52,0,0,1,6.61-3.39A27.55,27.55,0,0,1,730.14.06a40.21,40.21,0,0,1,11.62,1.16A54,54,0,0,1,747,2.71c1.69.56,3.36,1.13,5,1.82a91.41,91.41,0,0,1,18,9.92,94.4,94.4,0,0,1,8,6.27A67,67,0,0,1,785.11,28Z"/><path d="M789,47a117.53,117.53,0,0,1,17.05.32c5.34.38,10.43,1,15.29,1.38a70.94,70.94,0,0,1,7.1,1c.59.13,1.16.23,1.75.34.29.05.59.14.88.2l.87.15a33.37,33.37,0,0,0,3.56.57,16,16,0,0,0,7.1-.59,11.87,11.87,0,0,0,5.68-4.2l5.15-7v8.69c0,1.16,0,2.33.12,3.5s.21,2.33.35,3.5.35,2.33.56,3.5.48,2.33.78,3.5L851,57.17l1.19,0c.35,0,.68,0,1,0,.67,0,1.32.06,2,.11a26.51,26.51,0,0,1,4,.69A26.18,26.18,0,0,1,863,59.38a20.94,20.94,0,0,1,3.72,2.25,22.18,22.18,0,0,1,5.85,6.65,31.37,31.37,0,0,1,3.19,7.94A40.8,40.8,0,0,1,877,84.11a44.89,44.89,0,0,1-.3,7.47A49.35,49.35,0,0,1,872.88,105l-9.27-13c.52,0,.69,0,1,.07l.78.11c.51.07,1,.16,1.49.25a28.11,28.11,0,0,1,2.88.7,29.88,29.88,0,0,1,5.66,2.19A25.91,25.91,0,0,1,880.87,99a19.86,19.86,0,0,1,4.41,5.56c.27.55.52,1.11.76,1.66s.39,1.13.56,1.7a16.39,16.39,0,0,1-.31,9.53,20.39,20.39,0,0,1-5.81,8.75l-1.75-.73c-.09-.83-.13-1.61-.19-2.39l-.25-2.25a21.19,21.19,0,0,0-.91-4,8.3,8.3,0,0,0-1.51-2.82,5.09,5.09,0,0,0-1.82-1.39,16.62,16.62,0,0,0-4.63-1c-.95-.09-2-.14-3-.15-.52,0-1.06,0-1.57,0l-.75,0-.34,0c-.07,0-.27,0-.12,0l-9.28-13c.81-3.59,1.6-7,2.29-10.27q.15-.61.24-1.2l.25-1.19c.16-.79.23-1.54.38-2.31a32.84,32.84,0,0,0,.31-4.3,16.23,16.23,0,0,0-.48-3.69,17.46,17.46,0,0,0-1.2-3.27,12.39,12.39,0,0,0-2.33-3.29,15.09,15.09,0,0,0-1.74-1.51,10.43,10.43,0,0,0-1-.64l-.49-.28c-.13-.09-.37-.18-.32-.24l-4.31-4.64c.3-1.17.54-2.34.78-3.5s.41-2.34.56-3.5.27-2.34.35-3.5.12-2.34.12-3.5l5.16,1.68a46.62,46.62,0,0,1-6.46,7,41.93,41.93,0,0,1-3.89,3.06l-2.11,1.39-2.2,1.23a44.65,44.65,0,0,1-4.61,2,32.26,32.26,0,0,1-4.78,1.29,29.65,29.65,0,0,1-9.48.18,49.43,49.43,0,0,1-8.91-2.1A52.29,52.29,0,0,1,802.22,60a51.55,51.55,0,0,1-7.51-4.87,43.42,43.42,0,0,1-3.41-3,27.08,27.08,0,0,1-3.1-3.51Z"/><path d="M818.78,122.34c.3-1.73.63-3.45.94-5.13s.64-3.33.88-4.93c.13-.79.24-1.58.3-2.31a11.24,11.24,0,0,0,0-2,.86.86,0,0,0-.18-.5s-.09.08-.1.13a1.28,1.28,0,0,0,0,.34l0,.18a3.59,3.59,0,0,0,.08.35,3.42,3.42,0,0,0,.13.34l.09.17c0,.08.08.17.13.25a3.47,3.47,0,0,0,.73.89,3.57,3.57,0,0,0,1,.73,3.72,3.72,0,0,0,.89.35c.14,0,.32.06.43.08l.23,0a1.83,1.83,0,0,0,.47,0,.76.76,0,0,0,.32.05l-4.68-.65c-5.72-2.28-11.51-4.74-17.11-7.2s-11.22-4.84-16.56-7.37c-1.33-.62-2.65-1.26-4-1.91l-3.86-1.87a46.52,46.52,0,0,0-7.11-2.91c-.51-.15-.94-.24-1.31-.32a2.74,2.74,0,0,1-.75-.22c-.12-.08-.19-.21-.35-.23s-.37.15-.54.49a5.51,5.51,0,0,0-.22.62c0,.26-.12.51-.15.8a13.16,13.16,0,0,0,0,1.88,20.79,20.79,0,0,0,.85,4.16l-.39-.7a68.1,68.1,0,0,0,7.6,9.59,70.74,70.74,0,0,0,9.09,8.22,79.74,79.74,0,0,0,10.12,6.53,61.35,61.35,0,0,0,10,4.42l14.39,4.63-14,9.3c-.88.59-1.58,1-2.37,1.5s-1.54.93-2.32,1.36c-1.57.86-3.15,1.7-4.77,2.47a96.85,96.85,0,0,1-10.12,4.26c-1.78.63-3.6,1.2-5.53,1.68a42.42,42.42,0,0,1-6.05,1.14,33.93,33.93,0,0,1-6.95.1A23.45,23.45,0,0,1,760,149l11.7-16.46,1,1,.88.93c.58.62,1.13,1.25,1.66,1.89,1.09,1.25,2.1,2.56,3.1,3.88a72.92,72.92,0,0,1,5.37,8.42,52.14,52.14,0,0,1,6.46,19.91,32.44,32.44,0,0,1-.82,11.27,25.69,25.69,0,0,1-5.15,10l-.88,1.06c-.3.33-.65.63-1,.94-.66.6-1.28,1.25-2,1.77l-2.11,1.51a19.17,19.17,0,0,1-2.19,1.27,29.58,29.58,0,0,1-4.49,2,16.47,16.47,0,0,1-2.3.69c-.77.2-1.53.4-2.3.56l-.89-1.68c1-1.16,2.09-2.2,3-3.29a37.64,37.64,0,0,0,2.62-3.35,23,23,0,0,0,3.49-6.8c1.44-4.51.86-8.7-.69-13a52,52,0,0,0-7.21-12.7c-1.53-2.06-3.16-4.11-4.87-6.1-.84-1-1.72-2-2.58-3l-1.31-1.42-.64-.68-.54-.56,11.71-16.45a10.41,10.41,0,0,0,4.42.65,44,44,0,0,0,8-1,80,80,0,0,0,8.7-2.36c1.46-.48,2.92-1,4.38-1.51l4.26-1.53.37,13.93a51.6,51.6,0,0,1-10.87-9.13c-3.09-3.3-5.74-6.77-8.39-10.18s-5.21-6.79-7.84-10.1-5.25-6.55-8.06-9.83l-.14-.17-.25-.54c-.7-1.54-1.38-3.12-2-4.85a22.44,22.44,0,0,1-.72-2.8c-.11-.49-.16-1-.23-1.56a16.33,16.33,0,0,1,0-1.73,10.62,10.62,0,0,1,1-3.95,10.38,10.38,0,0,1,3-3.55,13.8,13.8,0,0,1,3.65-1.88,21.42,21.42,0,0,1,3.39-.8,39.22,39.22,0,0,1,11.48.23,55.89,55.89,0,0,1,10,2.54,71.61,71.61,0,0,1,9.11,4c2.92,1.49,5.75,3.13,8.53,4.81a128.41,128.41,0,0,1,15.8,11.45L822,100.2c.52-.09,1-.16,1.56-.2.37,0,.74,0,1.1,0l.55,0a5.93,5.93,0,0,1,.74.14,7.56,7.56,0,0,1,1.49.52,8.48,8.48,0,0,1,1.57,1.06,7.54,7.54,0,0,1,1.14,1.38l.23.37.14.31c.1.21.18.42.26.64s.14.43.2.64.06.33.09.49c0,.33.09.65.11,1a9.84,9.84,0,0,1-.09,1.39,11.29,11.29,0,0,1-.52,2,23.29,23.29,0,0,1-2.88,5.3,49.36,49.36,0,0,1-3.41,4.24,45.81,45.81,0,0,1-3.85,3.78Z"/><path d="M879,100.08a12.56,12.56,0,0,1,2.62-3.9,14.31,14.31,0,0,1,4-2.91,16.14,16.14,0,0,1,2.5-.94,17.65,17.65,0,0,1,2.79-.49,17,17,0,0,1,5.89.72,20.83,20.83,0,0,1,9.15,6.3,28.82,28.82,0,0,1,5,8.17,24.68,24.68,0,0,1,1.7,8.53c0,1.42-.07,2.84-.18,4.25s-.32,2.78-.49,4.15a73.38,73.38,0,0,0-.84,8,43.66,43.66,0,0,0,.46,7.68L911,138c1.29,1.55,2.4,2.94,3.63,4.47a55.25,55.25,0,0,1,3.53,4.95A20.22,20.22,0,0,1,920.8,154a15.36,15.36,0,0,1,.21,4.34,14.57,14.57,0,0,1-1.34,4.73,16.69,16.69,0,0,1-6.4,6.95l-.92.55-.11.07,0,0-.09.07-.16.13a7.49,7.49,0,0,0-.66.52,17.72,17.72,0,0,0-1.32,1.19c-1.79,1.74-3.58,4-5.89,6.5a48.32,48.32,0,0,1-4.12,4,26.64,26.64,0,0,1-6.77,4.27,17.61,17.61,0,0,1-5.79,1.34,15.15,15.15,0,0,1-6.49-1.16c-.46-.21-.91-.42-1.35-.65a13,13,0,0,1-1.17-.73,13.84,13.84,0,0,1-1.95-1.55,17,17,0,0,1-1.51-1.58c-.44-.53-.79-1-1.18-1.56-.66-1-1.23-2-1.78-3a33.11,33.11,0,0,1-1.4-3.42,18.08,18.08,0,0,1-.75-7.92,12.66,12.66,0,0,1,3.41-6.9,15.51,15.51,0,0,1,1.32-1.15c.49-.32,1-.63,1.44-.89a8.29,8.29,0,0,1,1.49-.67,9.37,9.37,0,0,1,1.58-.44l1.09,1.56a12,12,0,0,0-.81,4.75,5.52,5.52,0,0,0,1.2,3.15,14.67,14.67,0,0,0,2.23,2c.49.31.92.65,1.39,1s1.06.68,1.54,1a6.81,6.81,0,0,0,.66.28c.18,0,.37.13.49.09s.22,0,.21-.13,0,0,0-.12a.56.56,0,0,0-.14-.16,2.6,2.6,0,0,0-1.37-.53,3.48,3.48,0,0,1-.82-.12c0-.21.74-.81,1.66-1.77s2.09-2.06,3.38-3.25a53.62,53.62,0,0,1,9.75-7.2c1-.55,2-1.08,3.09-1.56.52-.25,1.08-.48,1.64-.69l.42-.17.21-.08.11,0h0l.24,0a1.77,1.77,0,0,1,1.27.11.91.91,0,0,0,.66,0,2.14,2.14,0,0,0,.78-.82,7.86,7.86,0,0,0,.84-3.62,16.84,16.84,0,0,0-2.53-8.91l-.58-.94,0-.65a28.54,28.54,0,0,0-.91-7.36,30.42,30.42,0,0,0-2.9-7L900,122.42c-.68-1-1.31-2.07-1.9-3.1a47.44,47.44,0,0,1-3-5.8c-.75-1.9-1.47-3.62-2.19-5.08a28.85,28.85,0,0,0-2-3.6,6.87,6.87,0,0,0-1.32-1.4,7.61,7.61,0,0,0-2.23-1.15,21.57,21.57,0,0,0-7.08-.73Z"/><path d="M937.69,157.56a52.42,52.42,0,0,1,.67-10.32,41.18,41.18,0,0,1,3-10.4,22.64,22.64,0,0,1,1.48-2.75,15.32,15.32,0,0,1,2.37-2.89,10.56,10.56,0,0,1,4.74-2.68,10,10,0,0,1,3.65-.24,13.56,13.56,0,0,1,1.79.38,16.52,16.52,0,0,1,1.57.62,13.68,13.68,0,0,1,4.08,3.13c.46.51.91,1,1.26,1.52s.71,1,1,1.45a35.32,35.32,0,0,1,2.85,5.44,52.86,52.86,0,0,1,1.93,5.17c.54,1.7,1,3.38,1.48,5.07a88,88,0,0,1,2,10.05,93.56,93.56,0,0,1,.39,20.07L963,176a10,10,0,0,1,1.08-.29l1-.22c.65-.14,1.29-.27,1.93-.38,1.28-.22,2.55-.4,3.83-.54a73.27,73.27,0,0,1,7.7-.41c.64,0,1.29,0,1.94.05s1.29,0,1.94.11,1.29.12,1.94.21,1.3.17,1.95.29a25.29,25.29,0,0,1,7.65,2.6,18.12,18.12,0,0,1,6.18,5.53,23.73,23.73,0,0,1,3.41,7.29,58.43,58.43,0,0,1,2,15.18l-5.45-5.55c1.63-.36,3.06-.66,4.59-.94s3-.51,4.6-.68A51.82,51.82,0,0,1,1019,198a31.62,31.62,0,0,1,5.38.9,21.08,21.08,0,0,1,6,2.59,15.63,15.63,0,0,1,5.85,6.66,14.05,14.05,0,0,1,.86,2.34c.18.79.34,1.59.45,2.39a16.83,16.83,0,0,1,.07,2.23l0,1.11a9.67,9.67,0,0,1-.13,1c-.1.64-.22,1.28-.35,1.91a14.71,14.71,0,0,1-.48,1.69l-.54,1.62c-.2.48-.41.93-.62,1.4l-.64,1.39c-.21.47-.45.83-.68,1.25-.46.79-.92,1.66-1.4,2.38l-1.47,2.16c-.5.74-1,1.34-1.52,2s-1,1.34-1.54,1.95l-1.59,1.8a72.86,72.86,0,0,1-14.42,12.52,80.42,80.42,0,0,1-16.91,8.37,88.26,88.26,0,0,1-17.94,4.49,89.9,89.9,0,0,1-9.08.86c-1.52.07-3,.08-4.54.1s-3-.06-4.52-.15a69.57,69.57,0,0,1-17.72-3.14l.13-1.9A239.76,239.76,0,0,0,973.5,247.5a132.75,132.75,0,0,0,27.25-15.05,124.1,124.1,0,0,0,11.67-9.51c.91-.86,1.84-1.71,2.64-2.56.4-.42.88-.85,1.22-1.27l1.1-1.25c.38-.42.61-.79.94-1.19.14-.19.34-.4.44-.57l.33-.52.35-.51c.06-.12.12-.25.2-.38s.19-.28.2-.34a.42.42,0,0,1,.1-.17l.07-.07a0,0,0,0,0,0,0s.08,0,.1.1a.43.43,0,0,0,.11.28c.07.08.07.24.16.33.25.45.7.51.43.22a5.21,5.21,0,0,0-1.61-1.15c-.37-.22-.89-.42-1.34-.64s-1-.39-1.56-.58a65.89,65.89,0,0,0-15.19-2.93l-6.89-.56,1.45-5c1.2-4.16,2-8.49,1.4-12.51s-2.5-7.53-5.85-9.2a12.7,12.7,0,0,0-5.63-1.24,12.87,12.87,0,0,0-1.52.05,13.29,13.29,0,0,0-1.53.18,20.67,20.67,0,0,0-3.06.67,33.42,33.42,0,0,0-5.93,2.35c-1,.47-1.9,1-2.81,1.52q-.69.39-1.35.81l-.64.41a5.69,5.69,0,0,0-.53.39l-5.6,6.35-3.36-11.53a184.63,184.63,0,0,1-4.54-18.66c-.58-3.07-1-6.15-1.56-9.14s-1.14-5.9-1.78-8.56c-.34-1.3-.73-2.54-1.06-3.49-.09-.25-.17-.48-.24-.64s-.13-.32-.18-.45,0-.25.45-.09a1.36,1.36,0,0,0,.46.13,2.43,2.43,0,0,0,.61.08,3.09,3.09,0,0,0,1.22-.16c.65-.25.65-.52.44-.48a2.52,2.52,0,0,0-1,.58,12.93,12.93,0,0,0-1.35,1.22,62.12,62.12,0,0,0-5.56,7.12l-5.61,8.15Z"/><path d="M878.78,299.34a26.42,26.42,0,0,1,3.05-8.14,31.78,31.78,0,0,1,5.44-7.11,31.07,31.07,0,0,1,17-8.54,34.81,34.81,0,0,1,9.88-.08c.81.1,1.59.28,2.39.42l1.2.24,1.15.32c.76.22,1.54.43,2.3.67s1.46.55,2.19.85a38.79,38.79,0,0,1,14.34,10.53l-7-.73c1.55-.41,2.93-.71,4.38-1s2.88-.59,4.32-.85c2.86-.54,5.71-1.07,8.52-1.67s5.58-1.26,8.37-2,5.58-1.38,8.49-2a38.63,38.63,0,0,1,9.41-.95,15.23,15.23,0,0,1,5.69,1.35,12,12,0,0,1,5.22,4.8,16.11,16.11,0,0,1,2.06,6.35,29,29,0,0,1,.05,5.65,42,42,0,0,1-2.14,9.67l-1.87-9.32.88.75c.26.22.5.45.74.68.47.45.93.91,1.39,1.38a33.24,33.24,0,0,1,2.62,3.14,24.46,24.46,0,0,1,2.38,4,17.91,17.91,0,0,1,1.65,5.7,15,15,0,0,1-1.19,7.74,16.11,16.11,0,0,1-4.64,5.9,24.54,24.54,0,0,1-9.11,4.42l-2.45.7-3.59-1.16-7.51-2.44-7.64-2.53c-5.08-1.68-10.15-3.35-15.15-4.61a57.28,57.28,0,0,0-14.49-2.23,14.27,14.27,0,0,0-6.31,1.33,12.81,12.81,0,0,0-5.21,5.35l-1.88-.28c-.11-.78-.17-1.58-.23-2.41a17,17,0,0,1,.19-2.53,5.59,5.59,0,0,1,.3-1.27l.4-1.29a6.33,6.33,0,0,1,.55-1.25l.66-1.23a19.82,19.82,0,0,1,8.36-7.15,37.13,37.13,0,0,1,9.86-3c1.64-.28,3.26-.46,4.89-.61s3.22-.17,4.8-.17,3.16.08,4.74.15,3.11.25,4.64.43a90.66,90.66,0,0,1,9.09,1.5c3,.65,5.9,1.45,8.78,2.38,1.45.46,2.87,1,4.29,1.52l2.14.84c.73.3,1.37.6,2.22,1l-6-.46c1.27-.17,2.19-.56,2.07-.32a5.48,5.48,0,0,0-.71,1.29,3.08,3.08,0,0,0-.14,1.79c.11.28.2.13.14-.2a5.61,5.61,0,0,0-.49-1.4,19,19,0,0,0-1-1.79c-.2-.3-.4-.61-.62-.91l-.32-.44-.14-.2c0-.06-.12-.16-.06-.12l-1.87-9.32c1.25-2.1,2.45-4.15,3.36-6.05a19.25,19.25,0,0,0,1.6-4.38,1.43,1.43,0,0,0-.23-1.33,4.39,4.39,0,0,0-2.11-1.45,17.7,17.7,0,0,0-7.2-.83,40.35,40.35,0,0,0-15.4,4.37,62,62,0,0,0-7.07,4.23c-1.14.79-2.26,1.59-3.37,2.41s-2.25,1.64-3.21,2.43l-2,1.6-5.07-2.33c-4.45-2.05-8.65-3.79-12.53-5.3a44,44,0,0,0-5.75-1.91,30.1,30.1,0,0,0-5.7-.86,29,29,0,0,0-12.08,2,62.21,62.21,0,0,0-13,7.19Z"/><path d="M921.7,147.87a18.79,18.79,0,0,1,5-1.89,21.66,21.66,0,0,1,5.23-.55,18.74,18.74,0,0,1,2.75.25,16.17,16.17,0,0,1,2.89.7,14.87,14.87,0,0,1,6.2,3.94,19,19,0,0,1,1.45,1.88,16.2,16.2,0,0,1,1.16,2.32,13.72,13.72,0,0,1,.88,5.2,15.31,15.31,0,0,1-.82,4.56c-.22.63-.49,1.24-.75,1.86s-.58,1-.89,1.55c-.16.25-.32.51-.48.74l-.5.63c-.33.41-.68.81-1,1.21a22.93,22.93,0,0,1-2.21,1.9,20.45,20.45,0,0,1-2.34,1.44c-.79.4-1.6.77-2.42,1.11l-3.94-11.35a4.84,4.84,0,0,1,.79.26l.65.27c.42.18.83.37,1.22.57.8.4,1.56.82,2.31,1.27,1.5.86,2.93,1.78,4.33,2.69s2.78,1.84,4.12,2.88a21.74,21.74,0,0,1,3.8,3.65,20.49,20.49,0,0,1,4.16,10.46,28.24,28.24,0,0,1-.72,10.85l-.08-7.06c.3.43.48.64.7.94l.57.85c.38.55.73,1.11,1.06,1.69.64,1.15,1.24,2.33,1.79,3.55a39.84,39.84,0,0,1,2.73,8,24.3,24.3,0,0,1,.2,9.78,20.39,20.39,0,0,1-5.36,10.36,20.11,20.11,0,0,1-9.59,5.41,24,24,0,0,1-8.93.39,32.17,32.17,0,0,1-3.93-.89,28.89,28.89,0,0,1-3.65-1.37,28.22,28.22,0,0,1-6.56-4.12l.27-1.88c.59-.32,1.17-.57,1.75-.84l1.69-.71c1.11-.46,2.18-1,3.22-1.36s2-.9,3-1.3a11.71,11.71,0,0,0,1.38-.66l1.32-.62c.79-.5,1.62-.87,2.25-1.36l.95-.65c.26-.25.5-.48.74-.69a3.41,3.41,0,0,0,1.2-2.07,6,6,0,0,1,.19-1.53,24,24,0,0,0,.46-3.44,27,27,0,0,0-.24-5c-.11-.88-.29-1.78-.47-2.68-.09-.45-.17-.91-.24-1.37l-.12-.66a1.91,1.91,0,0,1,0-.54l-.08-7.07a41.39,41.39,0,0,0,4.58-5.21,7.26,7.26,0,0,0,1.21-2.88,4.85,4.85,0,0,0-.39-2.93,5.9,5.9,0,0,0-2.16-2.35,7.8,7.8,0,0,0-3.35-1.13,12.17,12.17,0,0,0-3.79.24c-.64.14-1.27.32-1.88.51-.3.09-.6.19-.88.3l-.41.17c-.11.06-.3.11-.27.18l-3.94-11.34c.27-.64.54-1.26.84-1.84s.48-1.15.75-1.66.41-1,.65-1.42a4.87,4.87,0,0,1,.24-.57,2.15,2.15,0,0,1,.14-.26c0-.08.05-.15.08-.21.33-.6.3-.72.39-.24a2.22,2.22,0,0,0,.36.89.86.86,0,0,0,.29.31c.05,0,.19.08.23.05.26-.1,0-.79-.57-1.54-.28-.38-.65-.78-1-1.22s-.87-.84-1.35-1.3c-2-1.81-4.37-3.69-6.9-6.15Z"/></g></g></svg>