<svg id="Layer_1" data-name="Layer 1" xmlns="http://www.w3.org/2000/svg" viewBox="0 0 1920 1080"><defs><style>.cls-1{fill:#0071bc;}</style></defs><title>Artboard 1</title><path class="cls-1" d="M0,981s68-4,133-20,187,33,187,33l122,17s63,31,92,8,93,11,93,11,193.64,14.15,220-21c21-28,90,13,90,13s97-44,125-18,285,43,308,18,251-30,300-6,74-10,74-10l51,28s111-11,125-37,0,83,0,83H0Z"/><path d="M-3,984.41s68-3.86,133-19.31S317,997,317,997l122,16.42s63,29.93,92,7.72,93,10.62,93,10.62,193.64,13.66,220-20.27c21-27,90,12.55,90,12.55s97-42.49,125-17.38,285,41.52,308,17.38,251-29,300-5.79,74-9.66,74-9.66l51,27s111-10.62,125-35.72,0,80.14,0,80.14H-3Z"/></svg>