<svg xmlns="http://www.w3.org/2000/svg" viewBox="0 0 1920.44 251.38"><title>bush</title><g id="Layer_2" data-name="Layer 2"><g id="Layer_2-2" data-name="Layer 2"><path d="M0,117.38s18-5,32,0l-16-36s25,13,36,36c0,0-25-68,9-56s30,56,30,56l23-29s13,18,0,29,26,0,26,0l15,14s21-11,18-36l14,36,14-9,7,17s16-49,0-98c0,0,27,50,42,81,0,0,19-6,18-32,0,0,57-58,37-17s-17,57-17,57,23-54,37-40v32l20-15s.48,24.57,9,17c9-8,12-41,32-34,0,0-9,37,0,37s17-30,17-30,7,9,12,11,28-12,22-26,23,8,23,8,20,7,12-14,21,7,32,54l17-19s14,3,14,20l15-26s-9,25,0,25,27-25,34-11c0,0,37,5,26-15l35,35s3-24,0-31,23,31,23,31,28-32,8-86c0,0,17,18,29,51s26,43,26,35-9-38-9-38,12.14,42.63,29,33c7-4,23-18,23-18s22,3,24,26c0,0,26-19,20-51,0,0,15,16,20,51,0,0,18,5,26-18,0,0,12-14,32-2,0,0,25-13,37,28,0,0,21-15,12-55s25,18,25,18,20,8,27-2,16,14,16,14,22-3,21-17a33.5,33.5,0,0,0,22,20c10,3,21-16.55,38-15,11,1,27-5,35,18s31-36,31-36,15,9,26,32c0,0,32-10,32-22s17,15,17,15,23-30,40-7l7,18s28-15,25-52c0,0-7.07,23,38,38,6,2,26-22,26-22l29,41,11-41s22,24,15,41l36-60s-26.42,58-7,58c8,0,27-21,27-21l13,15s25-10,17-47c0,0,21,16,25,14s14-53,30-36c0,0-14,27,16,22,12-2,29,14,39-26l14,26s7-51-20-80c0,0,38,11,55,95l27-75s-6,43,9,55c0,0,14-52,29-26s25,51,26,34c0,0,35-37,26-66l23,58s28-25,14-57l14,32s16-37,32-15c0,0,17-45,39,2,0,0,9-14,10-37s0,250,0,250H0Z"/></g></g></svg>