<svg xmlns="http://www.w3.org/2000/svg" viewBox="0 0 536.2 185.01"><defs><style>.cls-1{fill:#fff;stroke:#7180ac;stroke-miterlimit:10;}</style></defs><title>cloud1</title><g id="Layer_2" data-name="Layer 2"><g id="clouds"><path class="cls-1" d="M536.12,99.22s-95,7-109,0-22-5-22-5-10-27-29-18c0,0,30-43-21-66s-89,1-99,9c0,0-29-9-26,29,0,0-42-21-47,34,0,0-21-5-29,10,0,0-34-5-42,26s-21,29-21,29l-91,23s90-17,91-10c0,0-75,21-50,24s107-18,123-18,87-7,104-15,89,4,138-17S446.12,114.22,536.12,99.22Z"/></g></g></svg>