<svg xmlns="http://www.w3.org/2000/svg" viewBox="0 0 1920 534"><defs><style>.cls-1{fill:#7180ac;}</style></defs><title>mountain2</title><g id="Layer_2" data-name="Layer 2"><g id="Layer_7" data-name="Layer 7"><rect class="cls-1" x="1" width="1919" height="186"/><path class="cls-1" d="M140.38,532.77l86.83-18.4,68.61-36.14,41.76-14.73,71.91-7.63c6.23-.66,12.48,1.06,16.25,4.46l40.54,36.55s63.64-37.81,79.55-38.59,53.69,0,53.69,0h0c21-19.23,50-31.36,81.21-34.22,28.74-2.63,61.46-6.94,69.93-13.37,9.18-7,157-84.07,163.64-75.37,2.69,3.54,103.32-51.13,121-49.75,41.76,3.27,124.63,69.61,124.63,69.61l40.2,4.18,63.64-19.64s109.37,13.09,129.26,24.54,43.75,9.82,43.75,9.82l61.65-21.55L1570,339.73s173-85.06,202.85-88.34S1920,177.49,1920,177.49L0,180.11V534Z"/><polygon class="cls-1" points="1300.44 424.5 1266.63 450.18 1233.82 467.44 1043.32 475.86 1204.41 457 1300.44 424.5"/><polygon class="cls-1" points="1263.75 339.73 1225.55 355.47 1182.19 388.81 1138.03 420.09 1168.54 379.91 1165.33 369.38 1263.75 339.73"/><polygon class="cls-1" points="1050.76 280.79 991.67 314.42 1008.85 284.97 1050.76 280.79"/><polygon class="cls-1" points="754.83 408.97 783.05 413.55 741.38 414.78 754.83 408.97"/><polygon class="cls-1" points="1578.45 331.77 1496.66 379.91 1460.2 424.5 1267.96 503.77 1145.73 530.87 1498.41 352.54 1578.45 331.77"/><polygon class="cls-1" points="1776.7 250.73 1665.03 314.57 1661.72 334.75 1638.52 339.73 1683.59 359.37 1733.31 366.92 1630.56 359.37 1589.46 346.2 1651.78 327.66 1656.41 308.83 1776.7 250.73"/></g></g></svg>