<svg xmlns="http://www.w3.org/2000/svg" viewBox="0 0 1920.31 222.93"><title>mountain</title><g id="Layer_2" data-name="Layer 2"><g id="Layer_6" data-name="Layer 6"><path d="M0,197.4l60.61-21.75,60.67-21.57,1.38-.5,1.22,1L150.2,175l-2.91-.6,48.82-14.18,1.81-.53,1.6,1.17,30.29,22.19-1.23-.66c12.64,4.08,25.36,8.06,38,12s25.43,7.81,38.18,11.49c6.38,1.84,12.76,3.64,19.14,5.32,3.19.83,6.39,1.69,9.56,2.41,1.59.37,3.19.79,4.76,1.11l4.7.95.59.12.54.07,1.09.15,2.17.3c.72.08,1.43,0,2.14.08a13.63,13.63,0,0,0,2.12,0,29.35,29.35,0,0,0,8.22-1.53,31.55,31.55,0,0,0,10.83-6.23c.53-.46,1-.94,1.5-1.41.23-.24.47-.48.68-.72l.3-.34.19-.22,1.93-2.34,2.89,0,50-.42-2.64.56,91.7-41.31,1.93-.87,2.21.35,44,7-4.27.52L749.76,86.77l11.89-5.21.06,13,.07,15.8L751.43,102l58-12,1.34-.27,1.39.15,60,6.68-6.53,1.91,75.91-61.62,2-1.59L946,35l42.25-5.54L1030.51,24,1115,13.09l3-.38,2.58,1.5,32,18.67-8-.43,67-29.8L1217.59,0l4.16,4.94,78.59,93.46,1.94,2.3v2.94l-.09,19.75-4.93-7.4,49.91,21.1,1.1.47.86.72,39.31,33,39.26,33-5-1.61,62-4.06-1.7.35,44.75-15.19,44.79-15.07c3.74-1.24,7.46-2.54,11.21-3.74l11.28-3.53,22.55-7.07,45.1-14.13-2.64,2.07,16.31-25.76,1.69-2.66,3,.6,71.83,14.47.54.11.41.22,30.79,16.22,30.75,16.28-2.9.43,20.3-18.87.63-.59h.8l24.5.13,24.51.18-.37.06L1920,131.94l.3,1-37,11.86-.08,0h-.07l-49,.58.36-.15-20,19.2-.28.27-.35-.18-62-31.57.16.06-72-13.51.64-.29-16,26-.12.19-.22.08L1619.44,160l-22.46,7.3L1585.76,171c-3.74,1.24-7.44,2.57-11.16,3.85l-89.2,31.06-.09,0h-.1l-62,4.54-.3,0-.23-.2-79-65.42.2.12-50-20.85-.5-.21v-20.3l.2.54-79-93.07,1,.23-67,29.94-.43.19-.41-.23-32-18.61.59.12-169,22,.49-.21-76,61.47-.31.25-.39,0-60-6.8h.28l-58,11.82-1.06.21V94.61l1.23.81-189,81.73-.21.09-.23,0-44-7.35.43-.06-92,40.59-.14.06h-.15l-50,0,.54-.27a35.08,35.08,0,0,1-7.69,6.67,37.19,37.19,0,0,1-9.16,4.35,38.68,38.68,0,0,1-20.08.82l-4.91-1.05c-1.63-.35-3.24-.79-4.86-1.19-3.25-.78-6.46-1.68-9.68-2.55-6.43-1.77-12.83-3.65-19.22-5.56-12.76-3.84-25.48-7.85-38.16-11.94s-25.35-8.26-38-12.52l-.09,0-.08-.06-30-22.58.52.1-49,13.52-.28.08-.23-.19-26-20.89.53.09L.32,198.35Z"/></g></g></svg>